<svg id="Group_819" data-name="Group 819" xmlns="http://www.w3.org/2000/svg" width="12.188" height="15" viewBox="0 0 12.188 15">
  <defs>
    <style>
      .cls-1 {
        fill: #606060;
      }
    </style>
  </defs>
  <path id="Path_19013" data-name="Path 19013" class="cls-1" d="M-3059.5-6904.125h-2.578v-.469a1.408,1.408,0,0,0-1.406-1.406h-1.875a1.408,1.408,0,0,0-1.406,1.406v.469h-2.578a1.173,1.173,0,0,0-1.172,1.171v1.641a.468.468,0,0,0,.469.468h.256l.405,8.505a1.4,1.4,0,0,0,1.4,1.339h7.119a1.4,1.4,0,0,0,1.4-1.339l.405-8.505h.256a.468.468,0,0,0,.469-.468v-1.641A1.173,1.173,0,0,0-3059.5-6904.125Zm-6.328-.469a.469.469,0,0,1,.469-.468h1.875a.469.469,0,0,1,.469.468v.469h-2.812Zm5.434,12.21a.469.469,0,0,1-.468.447h-7.119a.468.468,0,0,1-.468-.447l-.4-8.46h8.861Zm1.128-9.4h-10.312v-1.172a.234.234,0,0,1,.235-.234h9.843a.234.234,0,0,1,.234.234Z" transform="translate(3070.511 6906)"/>
  <path id="Path_19014" data-name="Path 19014" class="cls-1" d="M-3063.2-6890.25a.563.563,0,0,0,.562-.563v-7.312a.563.563,0,0,0-.562-.563.563.563,0,0,0-.563.563v7.312A.563.563,0,0,0-3063.2-6890.25Z" transform="translate(3069.292 6903)"/>
  <path id="Path_19015" data-name="Path 19015" class="cls-1" d="M-3060.386-6890.25a.563.563,0,0,0,.563-.563v-7.312a.563.563,0,0,0-.563-.563.563.563,0,0,0-.562.563v7.312A.563.563,0,0,0-3060.386-6890.25Z" transform="translate(3068.784 6903)"/>
  <path id="Path_19016" data-name="Path 19016" class="cls-1" d="M-3066.011-6890.25a.563.563,0,0,0,.563-.563v-7.312a.563.563,0,0,0-.563-.563.563.563,0,0,0-.562.563v7.312A.563.563,0,0,0-3066.011-6890.25Z" transform="translate(3069.8 6903)"/>
</svg>
