<svg xmlns="http://www.w3.org/2000/svg" width="59.49" height="74.237" viewBox="0 0 59.49 74.237">
  <defs>
    <style>
      .cls-1 {
        fill: #003173;
        stroke: #003173;
        stroke-width: 0.5px;
      }

      .cls-2 {
        fill: #1ba0e1;
      }
    </style>
  </defs>
  <g id="ic_danh_sach_don_vi" transform="translate(-636.255 -416.881)">
    <g id="to-do-list" transform="translate(636.505 417.131)">
      <path id="Path_19576" data-name="Path 19576" class="cls-1" d="M52.845,7.374H51.616V6.145A6.152,6.152,0,0,0,45.471,0H6.145A6.152,6.152,0,0,0,0,6.145V60.219a6.152,6.152,0,0,0,6.145,6.145H7.374v1.229a6.152,6.152,0,0,0,6.145,6.145H52.845a6.152,6.152,0,0,0,6.145-6.145V13.518A6.152,6.152,0,0,0,52.845,7.374ZM41.784,2.458V8.094L40.2,6.5a1.23,1.23,0,0,0-1.738,0L36.869,8.094V2.458ZM2.458,60.219V6.145A3.687,3.687,0,0,1,6.145,2.458H34.411v8.6a1.229,1.229,0,0,0,2.1.869l2.818-2.818,2.818,2.818a1.229,1.229,0,0,0,2.1-.869v-8.6h1.229a3.687,3.687,0,0,1,3.687,3.687V60.219a3.687,3.687,0,0,1-3.687,3.687H6.145a3.687,3.687,0,0,1-3.687-3.687Zm54.074,7.374a3.687,3.687,0,0,1-3.687,3.687H13.518a3.687,3.687,0,0,1-3.687-3.687V66.363h35.64a6.152,6.152,0,0,0,6.145-6.145V9.832h1.229a3.687,3.687,0,0,1,3.687,3.687Zm0,0"/>
      <path id="Path_19582" data-name="Path 19582" class="cls-2" d="M160,232h25.712v2.458H160Zm0,0" transform="translate(-148.843 -196.36)"/>
      <path id="Path_19583" data-name="Path 19583" class="cls-2" d="M160,200h20.681v2.458H160Zm0,0" transform="translate(-148.843 -169.276)"/>
      <path id="Path_19584" data-name="Path 19584" class="cls-2" d="M160,336h25.712v2.458H160Zm0,0" transform="translate(-148.843 -284.384)"/>
      <path id="Path_19585" data-name="Path 19585" class="cls-2" d="M160,304h20.681v2.458H160Zm0,0" transform="translate(-148.843 -257.3)"/>
      <path id="Path_19586" data-name="Path 19586" class="cls-2" d="M224,304h2.458v2.458H224Zm0,0" transform="translate(-189.589 -257.3)"/>
    </g>
    <path id="Path_19587" data-name="Path 19587" class="cls-2" d="M-1719.831-565.474l2.3,4.669,5.152.749-3.728,3.634.88,5.131-4.608-2.423-4.608,2.423.88-5.131-3.728-3.634,5.152-.749Z" transform="translate(2375.986 991.592)"/>
  </g>
</svg>
