<svg xmlns="http://www.w3.org/2000/svg" width="65.576" height="65.476" viewBox="0 0 65.576 65.476">
  <defs>
    <style>
      .cls-1 {
        fill: #1ba0e1;
      }

      .cls-2 {
        fill: #003173;
      }
    </style>
  </defs>
  <g id="ic_lich_su_dong_bo" transform="translate(-1487.291 -225.02)">
    <g id="Group_1147" data-name="Group 1147" transform="translate(433.552 20.75)">
      <path id="Path_19418" data-name="Path 19418" class="cls-1" d="M5317.641,1853.266a16.63,16.63,0,0,1-15.976-13.751,1.242,1.242,0,0,1,2.444-.44,14.118,14.118,0,0,0,13.531,11.708,13.806,13.806,0,1,0-11.483-21.472,1.242,1.242,0,0,1-2.064-1.38,16.289,16.289,0,1,1,13.548,25.335Z" transform="translate(-4229.496 -1598.016)"/>
      <path id="Path_19419" data-name="Path 19419" class="cls-1" d="M5370.009,1852.76h-7.781a1.118,1.118,0,0,1-1.118-1.117v-10.6a1.117,1.117,0,1,1,2.235,0v9.478h6.664a1.117,1.117,0,0,1,0,2.235Z" transform="translate(-4274.193 -1612.479)"/>
      <path id="Path_19420" data-name="Path 19420" class="cls-1" d="M5318.468,1828.553h-8.388a1.118,1.118,0,0,1-1.118-1.117v-8.388a1.117,1.117,0,1,1,2.235,0v7.271h7.271a1.117,1.117,0,0,1,0,2.235Z" transform="translate(-4234.995 -1595.943)"/>
    </g>
    <g id="Group_1149" data-name="Group 1149" transform="translate(1523.328 370.521)">
      <path id="Path_19574" data-name="Path 19574" class="cls-2" d="M-26.6,103.362c-.078-.109-.158-.222-.243-.34l-.685-.941.94-.686q.558-.407,1.1-.8c.826-.6,1.607-1.162,2.379-1.749a.518.518,0,0,0,.141-.149.518.518,0,0,0-.164-.094c-3.866-1.5-8.009-3.095-12.664-4.865a.8.8,0,0,0-.231-.057.738.738,0,0,0-.014.184c.1,3.055.211,6.136.319,9.117q.082,2.268.163,4.536a.978.978,0,0,0,.041.312l.008,0,.01,0a1.187,1.187,0,0,0,.325-.2c.792-.588,1.6-1.173,2.382-1.738l.151-.11.867-.629.928-.675.689.917c.1.136.2.265.289.388l.015.02c.191.257.355.478.526.7,6.907,8.772,15.846,13.1,26.562,12.849,10.776-.253,19.516-5.047,25.976-14.251A30.659,30.659,0,0,0,28.255,92.9a2,2,0,0,0-3.935-.752c-.036.147-.067.3-.1.444-.021.1-.04.193-.06.283a28.81,28.81,0,0,1-9.372,15.652,28.021,28.021,0,0,1-16.9,6.715c-.487.021-.971.032-1.45.032-9.029,0-16.59-3.755-22.495-11.176-.188-.236-.355-.471-.532-.72Z" transform="translate(0 -199.396)"/>
      <path id="Path_19575" data-name="Path 19575" class="cls-2" d="M36.3-121.813q-.127-3.717-.251-7.434l-.144-4.288a1.574,1.574,0,0,0-.048-.429h0a.206.206,0,0,0-.024-.011,1.534,1.534,0,0,0-.35.219c-.78.58-1.552,1.136-2.368,1.726L32.1-131.3l-.928.673-.927-1.237c-.15-.2-.288-.387-.43-.57C23.146-141.071,14.494-145.467,4.1-145.5h-.13c-11.462,0-20.646,5.026-27.3,14.939a30.061,30.061,0,0,0-4.586,11.518,1.991,1.991,0,0,0,1.568,2.3,2.009,2.009,0,0,0,2.373-1.6c.029-.123.055-.247.082-.371l0-.021c.02-.092.039-.185.06-.277a28.321,28.321,0,0,1,16.07-19.888,28.045,28.045,0,0,1,25.3,1.016,28.216,28.216,0,0,1,9.643,8.739l.658.937-.925.674q-.556.406-1.1.794l-.018.013c-.829.6-1.612,1.164-2.386,1.754a.379.379,0,0,0-.125.141.357.357,0,0,0,.119.069c4.166,1.623,8.477,3.278,12.812,4.92a.546.546,0,0,0,.119.032.636.636,0,0,0,.028-.2c0-.347-.018-.7-.04-1.075C36.322-121.322,36.307-121.567,36.3-121.813Z" transform="translate(-6.838 0)"/>
    </g>
  </g>
</svg>
