<svg xmlns="http://www.w3.org/2000/svg" width="80.226" height="50.915" viewBox="0 0 80.226 50.915">
  <defs>
    <style>
      .cls-1 {
        fill: none;
      }

      .cls-2 {
        fill: #1ba0e1;
        stroke: #1ba0e1;
      }

      .cls-2, .cls-3 {
        stroke-width: 0.1px;
      }

      .cls-3 {
        fill: #003173;
        stroke: #003173;
      }
    </style>
  </defs>
  <g id="ic_nhom_nguoi_dung" transform="translate(-4534.142 -1032.157)">
    <path id="Path_19410" data-name="Path 19410" class="cls-1" d="M4732.678,1106.5l-.043-3.739a13.7,13.7,0,0,0-7.647-12.287,9.384,9.384,0,0,1-1.211.464,10.174,10.174,0,0,1-9-.051,9.754,9.754,0,0,1-1.342-.548,13.511,13.511,0,0,0-6.947,6.771,19.817,19.817,0,0,1,5.28,9.39Z" transform="translate(-118.31 -37.1)"/>
    <path id="Path_19411" data-name="Path 19411" class="cls-1" d="M4726.141,1054.273a13.2,13.2,0,0,0,3.494.672,14.568,14.568,0,0,0,3.737-.616,7.84,7.84,0,1,0-7.231-.055Z" transform="translate(-128.796 -4.942)"/>
    <path id="Path_19412" data-name="Path 19412" class="cls-2" d="M4702.631,1057.749a13.515,13.515,0,0,1,6.947-6.771,9.825,9.825,0,0,0,1.342.549,10.173,10.173,0,0,0,9,.051,9.422,9.422,0,0,0,1.211-.464,13.7,13.7,0,0,1,7.647,12.287l.044,3.738h-20.915a19.641,19.641,0,0,1,.421,2.356h22.878l-.072-6.1a16.055,16.055,0,0,0-8.239-14.012,10.2,10.2,0,1,0-15.038-.2,15.843,15.843,0,0,0-7.067,6.954A19.738,19.738,0,0,1,4702.631,1057.749Zm5-15.344a7.841,7.841,0,1,1,11.4,6.981,14.55,14.55,0,0,1-3.737.617,13.2,13.2,0,0,1-3.495-.672A7.847,7.847,0,0,1,4707.631,1042.4Z" transform="translate(-117.457)"/>
    <path id="Path_19413" data-name="Path 19413" class="cls-1" d="M4539.144,1106.5l.043-3.739a13.7,13.7,0,0,1,7.647-12.287,9.449,9.449,0,0,0,1.211.464,10.174,10.174,0,0,0,9-.051,9.83,9.83,0,0,0,1.342-.548,13.511,13.511,0,0,1,6.947,6.771,19.812,19.812,0,0,0-5.279,9.39Z" transform="translate(-5.002 -37.1)"/>
    <path id="Path_19414" data-name="Path 19414" class="cls-1" d="M4567.729,1054.273a13.212,13.212,0,0,1-3.5.672,14.557,14.557,0,0,1-3.736-.616,7.84,7.84,0,1,1,7.231-.055Z" transform="translate(-16.563 -4.942)"/>
    <path id="Path_19415" data-name="Path 19415" class="cls-2" d="M4562.264,1056.113a16,16,0,0,0-7.156-6.932,10.2,10.2,0,1,0-15.039.2,16.055,16.055,0,0,0-8.239,14.012l-.072,6.1h22.877a19.74,19.74,0,0,1,.422-2.356h-20.916l.044-3.738a13.7,13.7,0,0,1,7.647-12.287,9.385,9.385,0,0,0,1.211.464,10.171,10.171,0,0,0,9-.051,9.79,9.79,0,0,0,1.343-.549c3.152,1.366,7.038,6.75,7.038,6.75S4561.617,1056.615,4562.264,1056.113Zm-11.1-6.783a13.192,13.192,0,0,1-3.495.672,14.535,14.535,0,0,1-3.736-.617,7.84,7.84,0,1,1,7.23-.055Z" transform="translate(2.999)"/>
    <path id="Path_19416" data-name="Path 19416" class="cls-3" d="M4641.571,1077.207a22.947,22.947,0,0,0-.134-2.46,22.689,22.689,0,0,0-.421-2.547,21.925,21.925,0,0,0-5.28-10.15,20.319,20.319,0,0,0-1.837-1.745,19.845,19.845,0,0,0-2.494-1.771,14.153,14.153,0,0,0,3.42-9.306c0-7.5-5.641-13.594-12.574-13.594s-12.575,6.1-12.575,13.594a14.175,14.175,0,0,0,3.189,9.034A21.281,21.281,0,0,0,4602,1077.216v8.125h39.66Zm-19.319-38.432c5.331,0,9.668,4.689,9.668,10.452a10.583,10.583,0,0,1-5.277,9.307,16.715,16.715,0,0,1-4.607.822,15.212,15.212,0,0,1-4.309-.9,10.6,10.6,0,0,1-5.145-9.234C4612.582,1043.464,4616.919,1038.775,4622.251,1038.775ZM4604.9,1082.2v-4.984a18.046,18.046,0,0,1,10.079-16.561,11.609,11.609,0,0,0,1.657.732,11.7,11.7,0,0,0,11.1.068,11.106,11.106,0,0,0,1.495-.619,16.8,16.8,0,0,1,3.54,2.528,17.688,17.688,0,0,1,1.956,2.141,18.807,18.807,0,0,1,3.283,6.693,19.342,19.342,0,0,1,.495,2.547,19.787,19.787,0,0,1,.156,2.47l.055,4.984Z" transform="translate(-47.562 -2.32)"/>
  </g>
</svg>
