<svg xmlns="http://www.w3.org/2000/svg" width="45" height="45" viewBox="0 0 45 45">
  <defs>
    <style>
      .cls-1 {
        fill: #1ba0e1;
        stroke: #fff;
      }

      .cls-2 {
        fill: #fff;
      }

      .cls-3 {
        stroke: none;
      }

      .cls-4 {
        fill: none;
      }
    </style>
  </defs>
  <g id="main_ql_hv4" transform="translate(-1929 -289)">
    <g id="Group_1312" data-name="Group 1312" transform="translate(1917)">
      <g id="Component_21_40" data-name="Component 21 – 40" transform="translate(12 289)">
        <g id="Rectangle_436" data-name="Rectangle 436" class="cls-1">
          <rect class="cls-3" width="45" height="45" rx="8"/>
          <rect class="cls-4" x="0.5" y="0.5" width="44" height="44" rx="7.5"/>
        </g>
      </g>
    </g>
    <g id="Group_1317" data-name="Group 1317" transform="translate(450.709 72.979)">
      <g id="Group_1147" data-name="Group 1147" transform="translate(1495.004 232.443)">
        <path id="Path_19418" data-name="Path 19418" class="cls-2" d="M5308.347,1834.336a6.968,6.968,0,0,1-6.693-5.761.52.52,0,0,1,1.024-.184,5.915,5.915,0,0,0,5.669,4.905,5.784,5.784,0,1,0-4.811-9,.52.52,0,0,1-.865-.578,6.824,6.824,0,1,1,5.676,10.614Z" transform="translate(-5301.646 -1820.401)"/>
        <path id="Path_19419" data-name="Path 19419" class="cls-2" d="M5364.838,1845.305h-3.26a.468.468,0,0,1-.468-.468V1840.4a.468.468,0,1,1,.936,0v3.971h2.792a.468.468,0,0,1,0,.936Z" transform="translate(-5354.924 -1837.641)"/>
        <path id="Path_19420" data-name="Path 19420" class="cls-2" d="M5312.944,1822.38h-3.514a.469.469,0,0,1-.468-.468V1818.4a.468.468,0,0,1,.937,0v3.046h3.046a.468.468,0,0,1,0,.936Z" transform="translate(-5308.2 -1817.93)"/>
      </g>
      <g id="Group_1149" data-name="Group 1149" transform="translate(1487.291 225.02)">
        <path id="Path_19574" data-name="Path 19574" class="cls-2" d="M-32.082,95.929l-.1-.142-.287-.394.394-.287.461-.334c.346-.25.673-.487,1-.733a.217.217,0,0,0,.059-.062.217.217,0,0,0-.069-.039c-1.62-.63-3.355-1.3-5.306-2.038a.337.337,0,0,0-.1-.024.309.309,0,0,0-.006.077c.042,1.28.088,2.571.134,3.819q.034.95.068,1.9a.41.41,0,0,0,.017.131h0l0,0a.5.5,0,0,0,.136-.083c.332-.246.671-.491,1-.728l.063-.046.363-.263.389-.283.289.384.121.163.006.008c.08.108.149.2.221.292A13.2,13.2,0,0,0-22.1,102.631a13.131,13.131,0,0,0,10.883-5.97A12.845,12.845,0,0,0-9.1,91.545a.837.837,0,0,0-.659-.96.841.841,0,0,0-.99.645c-.015.062-.028.124-.041.186-.009.043-.017.081-.025.118a12.07,12.07,0,0,1-3.926,6.557,11.739,11.739,0,0,1-7.08,2.813c-.2.009-.407.013-.608.013a11.592,11.592,0,0,1-9.424-4.682c-.079-.1-.149-.2-.223-.3Z" transform="translate(36.037 -75.205)"/>
        <path id="Path_19575" data-name="Path 19575" class="cls-2" d="M-1.028-135.577q-.053-1.557-.105-3.114l-.061-1.8a.66.66,0,0,0-.02-.18h0l-.01,0a.642.642,0,0,0-.147.092c-.327.243-.65.476-.992.723l-.422.305-.389.282-.388-.518c-.063-.084-.121-.162-.18-.239A13.157,13.157,0,0,0-14.516-145.5h-.054a13.149,13.149,0,0,0-11.436,6.259,12.594,12.594,0,0,0-1.921,4.826.834.834,0,0,0,.657.965.842.842,0,0,0,.994-.669c.012-.052.023-.1.034-.155l0-.009c.008-.039.016-.077.025-.116a11.865,11.865,0,0,1,6.733-8.332,11.749,11.749,0,0,1,10.6.425,11.821,11.821,0,0,1,4.04,3.661l.276.392-.387.283-.459.333-.007.005c-.347.251-.675.488-1,.735a.159.159,0,0,0-.052.059.15.15,0,0,0,.05.029c1.745.68,3.551,1.373,5.368,2.061a.229.229,0,0,0,.05.014A.266.266,0,0,0-1-134.818c0-.145-.008-.294-.017-.451C-1.019-135.371-1.025-135.474-1.028-135.577Z" transform="translate(28.468 145.501)"/>
      </g>
    </g>
  </g>
</svg>
