<svg xmlns="http://www.w3.org/2000/svg" width="71.414" height="84.102" viewBox="0 0 71.414 84.102">
  <defs>
    <style>
      .cls-1 {
        fill: #003173;
      }

      .cls-2 {
        fill: #1ba0e1;
      }
    </style>
  </defs>
  <g id="ql_pages_ic8" transform="translate(1736.034 511.108)">
    <path id="Path_19589" data-name="Path 19589" class="cls-1" d="M-1721.005-481.646c-3.279,0-6.354.01-9.43,0-3.51-.015-5.561-2.03-5.575-5.5-.019-4.9-.041-9.8,0-14.692a8.928,8.928,0,0,1,9.281-9.247q28.249-.033,56.5-.006c3.619,0,5.6,1.985,5.6,5.651q.023,34.982,0,69.964c0,3.308-2.014,5.42-5.313,5.428-15.276.035-30.552.079-45.826-.084a6.007,6.007,0,0,0-4.122,1.663,5.878,5.878,0,0,1-6.858.667,5.487,5.487,0,0,1-2.934-6.016,8.785,8.785,0,0,1,2.257-3.956c1.662-1.7,3.683-3.036,5.493-4.6a2.435,2.435,0,0,0,.888-1.533C-1720.994-456.386-1721.005-468.861-1721.005-481.646Zm6.389,48.918c.708.056.975.1,1.242.1q21.609.009,43.219,0c2.152,0,2.979-.9,2.98-3.177q.01-34.557,0-69.115c0-2.933-.717-3.645-3.595-3.646q-24.147-.007-48.294,0h-1.955c2.289,2.483,2.585,5.18,2.578,8.039-.047,17.73-.026,35.461-.029,53.191v2.128c1.509-1.254,2.772-1.8,4.28-.847.21.133.767-.08,1.045-.289.923-.692,1.791-1.456,2.654-2.171-5.348-10.486-1.028-20.937,6.427-25.756a19.462,19.462,0,0,1,25.026,3.258,19.426,19.426,0,0,1,.831,25.073,18.879,18.879,0,0,1-11.374,7,19.5,19.5,0,0,1-16.273-4c-.315.222-.564.368-.778.554-1.239,1.074-3.019,1.759-2.363,4.065.144.506-.658,1.434-1.221,1.955C-1711.5-435.184-1712.9-434.132-1714.617-432.728Zm21.287-42.11a16.885,16.885,0,0,0-17.015,16.956,16.952,16.952,0,0,0,16.853,16.789,16.942,16.942,0,0,0,16.926-16.892A16.89,16.89,0,0,0-1693.33-474.838Zm-27.678-9.352c0-6.057.013-11.877,0-17.7-.012-3.763-2.5-6.522-5.977-6.677a6.26,6.26,0,0,0-6.4,6.1c-.187,5.24-.1,10.491-.052,15.737a2.339,2.339,0,0,0,2.4,2.507C-1727.782-484.133-1724.525-484.19-1721.008-484.19Zm5.256,40.229c-3.431,2.758-6.707,5.36-9.944,8.008-1.793,1.467-2.073,3.453-.805,5.046,1.315,1.652,3.337,1.772,5.232.257,2.587-2.069,5.148-4.169,7.717-6.259.7-.569,1.388-1.153,2.109-1.753Zm4.806,1.773,3.169-2.6-1.286-1.531-3.159,2.6Z" transform="translate(0 0)"/>
    <path id="Path_19590" data-name="Path 19590" class="cls-2" d="M-1638.93-397.136a13.217,13.217,0,0,1,13.225,13.213,13.267,13.267,0,0,1-13.361,13.285,13.24,13.24,0,0,1-13.122-13.152A13.172,13.172,0,0,1-1638.93-397.136Zm2.528,23.656c4.032-1.275,6.624-3.666,7.708-7.484a10.3,10.3,0,0,0-2.094-9.789c-2.217,2.381-4.32,4.615-6.381,6.887a1.575,1.575,0,0,0-.312,1.107C-1637.161-379.757-1636.79-376.761-1636.4-373.48Zm3.692-19c-5.772-4-14.358-1.571-15.726,4.291,2.714.85,5.427,1.729,8.163,2.526a1.663,1.663,0,0,0,1.392-.25C-1636.813-388.03-1634.819-390.218-1632.71-392.481Zm-16.6,6.725c-1.631,6.244,4.671,13.614,10.3,12.223-.321-2.763-.6-5.54-1.006-8.3a1.943,1.943,0,0,0-1.04-1.319C-1643.742-384.078-1646.47-384.877-1649.307-385.757Z" transform="translate(-54.5 -74.081)"/>
    <rect id="Rectangle_804" data-name="Rectangle 804" class="cls-2" width="38.501" height="2.45" rx="1.225" transform="translate(-1712.572 -500.57)"/>
    <rect id="Rectangle_805" data-name="Rectangle 805" class="cls-2" width="38.501" height="2.45" rx="1.225" transform="translate(-1712.572 -492.87)"/>
    <rect id="Rectangle_806" data-name="Rectangle 806" class="cls-2" width="19.25" height="2.45" rx="1.225" transform="translate(-1712.572 -485.17)"/>
  </g>
</svg>
