<svg xmlns="http://www.w3.org/2000/svg" width="80.81" height="69.867" viewBox="0 0 80.81 69.867">
  <defs>
    <style>
      .cls-1 {
        fill: #003173;
      }

      .cls-2 {
        fill: #1ba0e1;
      }
    </style>
  </defs>
  <g id="ql_pages_ic5" transform="translate(-1758.19 -1937.944)">
    <g id="Group_1372" data-name="Group 1372" transform="translate(1575 1519)">
      <g id="Group_1217" data-name="Group 1217" transform="translate(183.19 485.443)">
        <g id="Group_1216" data-name="Group 1216">
          <path id="Path_19607" data-name="Path 19607" class="cls-1" d="M79.126,490.667H1.684a1.683,1.683,0,1,0,0,3.367H79.126a1.683,1.683,0,1,0,0-3.367Z" transform="translate(0 -490.667)"/>
        </g>
      </g>
      <g id="Group_1219" data-name="Group 1219" transform="translate(186.558 465.241)">
        <g id="Group_1218" data-name="Group 1218">
          <path id="Path_19608" data-name="Path 19608" class="cls-1" d="M33.118,362.667h-10.1a1.684,1.684,0,0,0-1.684,1.684v20.2a1.684,1.684,0,0,0,1.684,1.683h10.1a1.684,1.684,0,0,0,1.684-1.684v-20.2A1.684,1.684,0,0,0,33.118,362.667Zm-1.684,20.2H24.7V366.034h6.734v16.835Z" transform="translate(-21.333 -362.667)"/>
        </g>
      </g>
      <g id="Group_1221" data-name="Group 1221" transform="translate(206.76 448.406)">
        <g id="Group_1220" data-name="Group 1220">
          <path id="Path_19609" data-name="Path 19609" class="cls-1" d="M161.118,256h-10.1a1.684,1.684,0,0,0-1.684,1.684v37.038a1.684,1.684,0,0,0,1.684,1.684h10.1a1.684,1.684,0,0,0,1.684-1.684V257.684A1.684,1.684,0,0,0,161.118,256Zm-1.684,37.038H152.7V259.367h6.734Z" transform="translate(-149.333 -256)"/>
        </g>
      </g>
      <g id="Group_1223" data-name="Group 1223" transform="translate(226.962 455.14)">
        <g id="Group_1222" data-name="Group 1222">
          <path id="Path_19610" data-name="Path 19610" class="cls-1" d="M289.118,298.667h-10.1a1.684,1.684,0,0,0-1.684,1.684v30.3a1.684,1.684,0,0,0,1.684,1.684h10.1a1.684,1.684,0,0,0,1.684-1.684v-30.3A1.684,1.684,0,0,0,289.118,298.667Zm-1.684,30.3H280.7V302.034h6.734Z" transform="translate(-277.333 -298.667)"/>
        </g>
      </g>
      <g id="Group_1225" data-name="Group 1225" transform="translate(247.164 434.938)">
        <g id="Group_1224" data-name="Group 1224">
          <path id="Path_19611" data-name="Path 19611" class="cls-1" d="M417.118,170.667h-10.1a1.684,1.684,0,0,0-1.684,1.684v50.506a1.684,1.684,0,0,0,1.684,1.684h10.1a1.684,1.684,0,0,0,1.684-1.684V172.351A1.684,1.684,0,0,0,417.118,170.667Zm-1.684,50.506H408.7V174.034h6.734Z" transform="translate(-405.333 -170.667)"/>
        </g>
      </g>
      <g id="Group_1253" data-name="Group 1253" transform="translate(184.615 418.944)">
        <g id="Group_1252" data-name="Group 1252">
          <path id="Path_19625" data-name="Path 19625" class="cls-2" d="M112.886,135.939a5.941,5.941,0,0,0-4.811,9.434L97.1,156.344a5.932,5.932,0,0,0-5.483-.134L80.165,144.755a5.946,5.946,0,1,0-10.261.255l-9.753,9.753a5.951,5.951,0,1,0,2.336,2.336l9.87-9.87a5.932,5.932,0,0,0,5.473-.139l11.343,11.343a5.946,5.946,0,1,0,10.267.246L110.7,147.414a5.945,5.945,0,1,0,2.181-11.475Zm-55.6,26.673a2.643,2.643,0,1,1,2.643-2.643A2.646,2.646,0,0,1,57.282,162.612ZM74.96,144.527a2.643,2.643,0,1,1,2.643-2.643A2.646,2.646,0,0,1,74.96,144.527Zm19.274,19.664a2.643,2.643,0,1,1,2.643-2.643A2.646,2.646,0,0,1,94.235,164.192Zm18.652-19.664a2.643,2.643,0,1,1,2.643-2.643A2.646,2.646,0,0,1,112.886,144.527Z" transform="translate(-51.336 -135.939)"/>
        </g>
      </g>
    </g>
  </g>
</svg>
