<svg xmlns="http://www.w3.org/2000/svg" width="76.705" height="77.053" viewBox="0 0 76.705 77.053">
  <defs>
    <style>
      .cls-1 {
        fill: #003173;
      }

      .cls-2 {
        fill: #1ba0e1;
      }
    </style>
  </defs>
  <g id="ql_pages_ic9" transform="translate(-1779.218 -2445.719)">
    <g id="Group_1375" data-name="Group 1375" transform="translate(1611 1843)">
      <g id="Group_1263" data-name="Group 1263" transform="translate(2039.493 577.008)">
        <path id="Path_19650" data-name="Path 19650" class="cls-1" d="M-1771.314,26.521a2.773,2.773,0,0,0-1.964-.81h-33.958a2.824,2.824,0,0,0-2.787,2.787V78.185a2.824,2.824,0,0,0,2.787,2.787h33.958a2.824,2.824,0,0,0,2.787-2.787V28.5A2.763,2.763,0,0,0-1771.314,26.521Zm-2,2.009V78.121H-1807.2V28.53Z" transform="translate(-42.002 0)"/>
        <g id="Group_1264" data-name="Group 1264" transform="translate(-1845.832 33.39)">
          <path id="Path_19651" data-name="Path 19651" class="cls-2" d="M-1751.432,58.818h-18.837a1.148,1.148,0,0,1-1.153-1.153h0a1.148,1.148,0,0,1,1.153-1.153h18.837a1.149,1.149,0,0,1,1.154,1.153h0A1.149,1.149,0,0,1-1751.432,58.818Z" transform="translate(1777.541 -52.186)"/>
          <path id="Path_19652" data-name="Path 19652" class="cls-2" d="M-1787.607,58.818h-1.762a1.148,1.148,0,0,1-1.153-1.153h0a1.148,1.148,0,0,1,1.153-1.153h1.762a1.148,1.148,0,0,1,1.153,1.153h0A1.148,1.148,0,0,1-1787.607,58.818Z" transform="translate(1790.522 -52.186)"/>
          <path id="Path_19653" data-name="Path 19653" class="cls-2" d="M-1751.432,45.318h-18.837a1.148,1.148,0,0,1-1.153-1.153h0a1.148,1.148,0,0,1,1.153-1.153h18.837a1.149,1.149,0,0,1,1.154,1.153h0A1.149,1.149,0,0,1-1751.432,45.318Z" transform="translate(1777.541 -43.011)"/>
          <path id="Path_19654" data-name="Path 19654" class="cls-2" d="M-1787.607,45.318h-1.762a1.148,1.148,0,0,1-1.153-1.153h0a1.148,1.148,0,0,1,1.153-1.153h1.762a1.148,1.148,0,0,1,1.153,1.153h0A1.148,1.148,0,0,1-1787.607,45.318Z" transform="translate(1790.522 -43.011)"/>
        </g>
        <g id="Group_1265" data-name="Group 1265" transform="translate(-1845.833 46.624)">
          <path id="Path_19655" data-name="Path 19655" class="cls-2" d="M-1782.138,96.367h-9.963a1.121,1.121,0,0,1-1.121-1.121v-.1a10.84,10.84,0,0,1,10.828-10.828h.256a1.121,1.121,0,0,1,1.121,1.121v9.8A1.121,1.121,0,0,1-1782.138,96.367Zm-8.781-2.242h7.66V86.608A8.6,8.6,0,0,0-1790.919,94.125Z" transform="translate(1793.222 -84.322)"/>
          <path id="Path_19656" data-name="Path 19656" class="cls-2" d="M-1773.177,115.013a12.109,12.109,0,0,1-12.045-11.867,1.121,1.121,0,0,1,.322-.8,1.122,1.122,0,0,1,.8-.335h9.675V92.043a1.121,1.121,0,0,1,1.121-1.121h.128a12.059,12.059,0,0,1,12.045,12.045A12.059,12.059,0,0,1-1773.177,115.013Zm-9.718-10.764a9.862,9.862,0,0,0,9.718,8.522,9.814,9.814,0,0,0,9.8-9.8,9.816,9.816,0,0,0-8.81-9.753v9.913a1.121,1.121,0,0,1-1.121,1.121Z" transform="translate(1787.785 -88.808)"/>
        </g>
      </g>
      <g id="Group_1307" data-name="Group 1307" transform="translate(1890.846 560.384)">
        <path id="Path_19710" data-name="Path 19710" class="cls-1" d="M-1800.023,151.194V117.906a5,5,0,0,0-5-5h-8.71v2.845h8.71a2.152,2.152,0,0,1,2.15,2.15V151.2H-1863.6V117.906a2.152,2.152,0,0,1,2.15-2.15h9.306v-2.845h-9.306a5,5,0,0,0-5,5v33.546l-5.375.021v1.417a9.7,9.7,0,0,0,9.668,9.706h57.338a9.714,9.714,0,0,0,9.7-9.706v-1.715Zm-4.793,8.557h-57.338a6.845,6.845,0,0,1-6.677-5.444l70.774-.275A6.868,6.868,0,0,1-1804.816,159.751Z" transform="translate(149.194 -43.208)"/>
      </g>
    </g>
  </g>
</svg>
