<svg xmlns="http://www.w3.org/2000/svg" width="75.338" height="84.274" viewBox="0 0 75.338 84.274">
  <defs>
    <style>
      .cls-1 {
        fill: #003173;
      }

      .cls-2 {
        fill: #1ba0e1;
      }
    </style>
  </defs>
  <g id="ql_pages_ic7" transform="translate(448.278 -632.626)">
    <path id="Path_19634" data-name="Path 19634" class="cls-1" d="M-392.094,716.9h-52.382a3.806,3.806,0,0,1-3.8-3.8V636.427a3.806,3.806,0,0,1,3.8-3.8h52.382a3.805,3.805,0,0,1,3.8,3.8v22.636a1.682,1.682,0,0,1-1.682,1.682,1.682,1.682,0,0,1-1.682-1.682V636.427a.437.437,0,0,0-.437-.437h-52.382a.438.438,0,0,0-.437.437V713.1a.438.438,0,0,0,.437.437h52.382a.437.437,0,0,0,.437-.437V705.25a1.682,1.682,0,0,1,1.682-1.682,1.682,1.682,0,0,1,1.682,1.682V713.1A3.806,3.806,0,0,1-392.094,716.9Z" transform="translate(0)"/>
    <rect id="Rectangle_825" data-name="Rectangle 825" class="cls-2" width="41.867" height="3.572" rx="1.786" transform="translate(-423.17 653.746) rotate(90)"/>
    <rect id="Rectangle_826" data-name="Rectangle 826" class="cls-2" width="53.871" height="3.655" rx="1.828" transform="translate(-372.94 695.946) rotate(180)"/>
    <rect id="Rectangle_827" data-name="Rectangle 827" class="cls-1" width="35.762" height="3.378" rx="1.689" transform="translate(-382.244 701.594) rotate(180)"/>
    <rect id="Rectangle_828" data-name="Rectangle 828" class="cls-2" width="32.646" height="3.572" rx="1.786" transform="translate(-429.733 647.35)"/>
    <rect id="Rectangle_829" data-name="Rectangle 829" class="cls-2" width="6.272" height="3.572" rx="1.786" transform="translate(-439.119 647.35)"/>
    <rect id="Rectangle_830" data-name="Rectangle 830" class="cls-2" width="32.646" height="3.572" rx="1.786" transform="translate(-429.733 640.704)"/>
    <rect id="Rectangle_831" data-name="Rectangle 831" class="cls-2" width="6.272" height="3.572" rx="1.786" transform="translate(-439.119 640.704)"/>
    <path id="Path_19635" data-name="Path 19635" class="cls-2" d="M-368.925,743.7h-3.945a2.745,2.745,0,0,1-2.742-2.742V712.923a2.745,2.745,0,0,1,2.742-2.742h3.945a2.745,2.745,0,0,1,2.742,2.742v28.035A2.745,2.745,0,0,1-368.925,743.7Zm-3.322-3.364h2.7v-26.79h-2.7Z" transform="translate(-45.503 -48.564)"/>
    <path id="Path_19636" data-name="Path 19636" class="cls-2" d="M-336.776,758.932h-3.945a2.745,2.745,0,0,1-2.742-2.742V738.019a2.745,2.745,0,0,1,2.742-2.742h3.945a2.745,2.745,0,0,1,2.742,2.742V756.19A2.745,2.745,0,0,1-336.776,758.932Zm-3.322-3.364h2.7V738.641h-2.7Z" transform="translate(-65.634 -64.279)"/>
    <path id="Path_19637" data-name="Path 19637" class="cls-2" d="M-305.221,753.561h-3.945a2.745,2.745,0,0,1-2.742-2.742V729.271a2.745,2.745,0,0,1,2.742-2.742h3.945a2.745,2.745,0,0,1,2.742,2.742V750.82A2.745,2.745,0,0,1-305.221,753.561Zm-3.322-3.364h2.7v-20.3h-2.7Z" transform="translate(-85.393 -58.801)"/>
    <path id="Path_19638" data-name="Path 19638" class="cls-2" d="M-272.48,768.414h-3.945a2.745,2.745,0,0,1-2.742-2.742v-12.6a2.745,2.745,0,0,1,2.742-2.742h3.945a2.745,2.745,0,0,1,2.742,2.742v12.6A2.745,2.745,0,0,1-272.48,768.414Zm-3.322-3.364h2.7V753.7h-2.7Z" transform="translate(-105.895 -73.707)"/>
  </g>
</svg>
