<svg id="refresh_1_" data-name="refresh (1)" xmlns="http://www.w3.org/2000/svg" width="15" height="15" viewBox="0 0 15 15">
  <defs>
    <style>
      .cls-1 {
        fill: #fff;
      }
    </style>
  </defs>
  <g id="Group_521" data-name="Group 521">
    <g id="Group_520" data-name="Group 520">
      <path id="Path_19021" data-name="Path 19021" class="cls-1" d="M5.534.326A7.528,7.528,0,0,0,1.419,3.508a2.193,2.193,0,0,0-.245.813V1.574h-1v4.17h4V4.7H1.913A6.559,6.559,0,0,1,7.668,1a6.625,6.625,0,0,1,6.224,4.89l.959-.3A7.448,7.448,0,0,0,5.534.326Z" transform="translate(-0.175 0)"/>
    </g>
  </g>
  <g id="Group_523" data-name="Group 523" transform="translate(0.323 9.119)">
    <g id="Group_522" data-name="Group 522">
      <path id="Path_19022" data-name="Path 19022" class="cls-1" d="M20.775,299.988v1.043h2.258a6.559,6.559,0,0,1-5.755,3.7,6.625,6.625,0,0,1-6.224-4.89l-.959.3a7.448,7.448,0,0,0,9.324,5.255,7.539,7.539,0,0,0,4.194-3.321,1.484,1.484,0,0,0,.16-.662v2.747h1v-4.17Z" transform="translate(-10.095 -299.842)"/>
    </g>
  </g>
</svg>
