<svg xmlns="http://www.w3.org/2000/svg" width="11.576" height="11.268" viewBox="0 0 11.576 11.268">
  <defs>
    <style>
      .cls-1 {
        fill: #fff;
      }
    </style>
  </defs>
  <g id="question_2_" data-name="question (2)" transform="translate(0 -6.786)">
    <path id="Path_19490" data-name="Path 19490" class="cls-1" d="M11.451,11.358,9.884,10.065V8.693a.34.34,0,0,0-.34-.34H7.809L6,6.864a.341.341,0,0,0-.434,0l-1.8,1.489H2.032a.34.34,0,0,0-.34.34v1.372L.125,11.358h0A.343.343,0,0,0,0,11.622v6.092a.34.34,0,0,0,.34.34H11.235a.34.34,0,0,0,.34-.34V11.622A.351.351,0,0,0,11.451,11.358Zm-.556,5.567L7.981,14.175l2.913-1.921ZM.912,11.591l.779-.643V12.1Zm1.46-2.557H9.2v3.52L5.788,14.806,2.372,12.554V9.034ZM5.788,7.568l.951.784h-1.9Zm4.875,4.022-.779.514V10.948l.779.643Zm-9.982.663,2.913,1.921L.681,16.925Zm3.5,2.307L5.6,15.5a.341.341,0,0,0,.375,0L7.4,14.56l2.981,2.813H1.2Z" transform="translate(0 0)"/>
    <path id="Path_19491" data-name="Path 19491" class="cls-1" d="M211.66,143.452a.341.341,0,0,0,.34-.34.31.31,0,0,1,.318-.311.314.314,0,0,1,.3.3c0,.207-.136.235-.308.439a1.43,1.43,0,0,0-.343.937.341.341,0,1,0,.681-.011.765.765,0,0,1,.287-.59.991.991,0,1,0-1.619-.767A.341.341,0,0,0,211.66,143.452Z" transform="translate(-206.524 -132.262)"/>
    <path id="Path_19492" data-name="Path 19492" class="cls-1" d="M240.34,268.434a.34.34,0,0,0-.34.34v.2a.34.34,0,0,0,.681,0v-.2A.34.34,0,0,0,240.34,268.434Z" transform="translate(-234.553 -255.709)"/>
  </g>
</svg>
