<svg xmlns="http://www.w3.org/2000/svg" width="15.207" height="15.207" viewBox="0 0 15.207 15.207">
  <defs>
    <style>
      .cls-1 {
        fill: #fff;
      }
    </style>
  </defs>
  <g id="Solid" transform="translate(-24 -24)">
    <path id="Path_19422" data-name="Path 19422" class="cls-1" d="M144.687,35.83a.787.787,0,0,0,1.112,0h0l2.966-2.966a.787.787,0,1,0-1.112-1.112l-1.624,1.624V24.787a.787.787,0,0,0-1.573,0v8.588l-1.624-1.624a.787.787,0,0,0-1.112,1.112Z" transform="translate(-113.64 0)"/>
    <path id="Path_19423" data-name="Path 19423" class="cls-1" d="M38.42,232a.787.787,0,0,0-.787.787v6.03H25.573v-6.03a.787.787,0,1,0-1.573,0v6.292a1.311,1.311,0,0,0,1.311,1.311H37.9a1.311,1.311,0,0,0,1.311-1.311v-6.292A.787.787,0,0,0,38.42,232Z" transform="translate(0 -201.183)"/>
  </g>
</svg>
