<svg xmlns="http://www.w3.org/2000/svg" width="45" height="45" viewBox="0 0 45 45">
  <defs>
    <style>
      .cls-1 {
        fill: #1ba0e1;
        stroke: #fff;
      }

      .cls-2 {
        fill: #fff;
      }

      .cls-3 {
        fill: none;
      }

      .cls-4 {
        stroke: none;
      }
    </style>
  </defs>
  <g id="tv_hv2" transform="translate(-1899 -2933)">
    <g id="Component_21_62" data-name="Component 21 – 62" transform="translate(1899 2933)">
      <g id="Rectangle_436" data-name="Rectangle 436" class="cls-1">
        <rect class="cls-4" width="45" height="45" rx="8"/>
        <rect class="cls-3" x="0.5" y="0.5" width="44" height="44" rx="7.5"/>
      </g>
    </g>
    <g id="Group_1360" data-name="Group 1360" transform="translate(1902 2936.303)">
      <g id="Group_242" data-name="Group 242" transform="translate(7.502 5.405)">
        <g id="Group_241" data-name="Group 241">
          <path id="Path_14190" data-name="Path 14190" class="cls-2" d="M-2038.563,2535.85V2531.5h-2.629c-.022,0-.041-.012-.063-.012v-7.593h-16.336a2.61,2.61,0,0,0-2.608,2.607v1.075h-.714a.645.645,0,0,0-.645.646.646.646,0,0,0,.645.646h.714v2.631h-.714a.645.645,0,0,0-.645.645.645.645,0,0,0,.645.646h.714v2.631h-.714a.645.645,0,0,0-.645.646.645.645,0,0,0,.645.646h.714v2.631h-.714a.645.645,0,0,0-.645.646.645.645,0,0,0,.645.645h.714v2.631h-.714a.645.645,0,0,0-.645.646.646.646,0,0,0,.645.646h.714v1.16a2.611,2.611,0,0,0,2.608,2.607h.705v.347a2.414,2.414,0,0,0,2.412,2.411h15.267a.646.646,0,0,0,.646-.645v-14.579Zm-19.028,11.184a1.318,1.318,0,0,1-1.316-1.316v-1.16h.714a.646.646,0,0,0,.646-.646.645.645,0,0,0-.646-.646h-.714v-2.631h.714a.645.645,0,0,0,.646-.645.646.646,0,0,0-.646-.646h-.714v-2.631h.714a.645.645,0,0,0,.646-.646.646.646,0,0,0-.646-.646h-.714v-2.631h.714a.646.646,0,0,0,.646-.646.645.645,0,0,0-.646-.645h-.714v-2.631h.714a.645.645,0,0,0,.646-.646.646.646,0,0,0-.646-.646h-.714V2526.5a1.318,1.318,0,0,1,1.316-1.316h12.458l0,0,2.562-.01v7.219h0v14.637Zm17.739-11.175v13.933h-14.622a1.121,1.121,0,0,1-1.12-1.12v-.347h13.682a.645.645,0,0,0,.645-.639h.012v-14.9h1.4Z" transform="translate(2061.558 -2523.893)"/>
        </g>
      </g>
      <rect id="Rectangle_120" data-name="Rectangle 120" class="cls-3" width="38" height="38"/>
    </g>
    <g id="Group_1362" data-name="Group 1362" transform="translate(843.225 2726.776)">
      <path id="Path_19418" data-name="Path 19418" class="cls-2" d="M5307.156,1831.911a5.73,5.73,0,0,1-5.5-4.738.428.428,0,0,1,.842-.151,4.864,4.864,0,0,0,4.662,4.033,4.756,4.756,0,1,0-3.957-7.4.428.428,0,0,1-.711-.476,5.612,5.612,0,1,1,4.667,8.728Z" transform="translate(-4229.496 -1598.465)"/>
      <path id="Path_19419" data-name="Path 19419" class="cls-2" d="M5364.176,1844.35H5361.5a.385.385,0,0,1-.385-.385v-3.65a.385.385,0,1,1,.77,0v3.265h2.3a.385.385,0,0,1,0,.77Z" transform="translate(-4283.873 -1616.061)"/>
      <path id="Path_19420" data-name="Path 19420" class="cls-2" d="M5312.237,1821.59h-2.89a.385.385,0,0,1-.385-.385v-2.89a.385.385,0,1,1,.77,0v2.5h2.505a.385.385,0,0,1,0,.77Z" transform="translate(-4236.187 -1595.943)"/>
    </g>
  </g>
</svg>
