<svg xmlns="http://www.w3.org/2000/svg" width="45" height="45" viewBox="0 0 45 45">
  <defs>
    <style>
      .cls-1 {
        fill: #1ba0e1;
        stroke: #fff;
      }

      .cls-2 {
        fill: #fff;
      }

      .cls-3 {
        stroke: none;
      }

      .cls-4 {
        fill: none;
      }
    </style>
  </defs>
  <g id="tv_hv3" transform="translate(-1896 -3004)">
    <g id="Component_21_64" data-name="Component 21 – 64" transform="translate(1896 3004)">
      <g id="Rectangle_436" data-name="Rectangle 436" class="cls-1">
        <rect class="cls-3" width="45" height="45" rx="8"/>
        <rect class="cls-4" x="0.5" y="0.5" width="44" height="44" rx="7.5"/>
      </g>
    </g>
    <g id="office-building_1_" data-name="office-building (1)" transform="translate(1880.571 3012.522)">
      <path id="Path_19721" data-name="Path 19721" class="cls-2" d="M49.991,6.4H39.861V.533A.533.533,0,0,0,39.328,0h-12.8A.533.533,0,0,0,26,.533v26.23a.533.533,0,0,0,.533.533H49.991a.533.533,0,0,0,.533-.533V6.931A.533.533,0,0,0,49.991,6.4ZM39.861,7.464h9.6V20.9h-9.6ZM31.331,26.23V21.965h3.2V26.23ZM35.063,20.9H30.8a.533.533,0,0,0-.533.533v4.8h-3.2V1.066H38.8V26.23H35.6v-4.8A.533.533,0,0,0,35.063,20.9Zm4.8,5.331V21.965h9.6V26.23Z"/>
      <path id="Path_19722" data-name="Path 19722" class="cls-2" d="M136.532,42.134H137.6a.533.533,0,0,0,.533-.533V40.534A.533.533,0,0,0,137.6,40h-1.066a.533.533,0,0,0-.533.533V41.6A.533.533,0,0,0,136.532,42.134Z" transform="translate(-104.135 -37.868)"/>
      <path id="Path_19723" data-name="Path 19723" class="cls-2" d="M136.532,112.134H137.6a.533.533,0,0,0,.533-.533v-1.066A.533.533,0,0,0,137.6,110h-1.066a.533.533,0,0,0-.533.533V111.6A.533.533,0,0,0,136.532,112.134Z" transform="translate(-104.135 -104.136)"/>
      <path id="Path_19724" data-name="Path 19724" class="cls-2" d="M136.532,182.134H137.6a.533.533,0,0,0,.533-.533v-1.066A.533.533,0,0,0,137.6,180h-1.066a.533.533,0,0,0-.533.533V181.6A.533.533,0,0,0,136.532,182.134Z" transform="translate(-104.135 -170.405)"/>
      <path id="Path_19725" data-name="Path 19725" class="cls-2" d="M136.532,252.133H137.6a.533.533,0,0,0,.533-.533v-1.066A.533.533,0,0,0,137.6,250h-1.066a.533.533,0,0,0-.533.533V251.6A.533.533,0,0,0,136.532,252.133Z" transform="translate(-104.135 -236.672)"/>
      <path id="Path_19726" data-name="Path 19726" class="cls-2" d="M136.532,322.132H137.6a.533.533,0,0,0,.533-.533v-1.066A.533.533,0,0,0,137.6,320h-1.066a.533.533,0,0,0-.533.533V321.6A.533.533,0,0,0,136.532,322.132Z" transform="translate(-104.135 -302.94)"/>
      <path id="Path_19727" data-name="Path 19727" class="cls-2" d="M66.534,42.134H67.6a.533.533,0,0,0,.533-.533V40.534A.533.533,0,0,0,67.6,40H66.534a.533.533,0,0,0-.533.533V41.6A.533.533,0,0,0,66.534,42.134Z" transform="translate(-37.868 -37.868)"/>
      <path id="Path_19728" data-name="Path 19728" class="cls-2" d="M66.534,112.134H67.6a.533.533,0,0,0,.533-.533v-1.066A.533.533,0,0,0,67.6,110H66.534a.533.533,0,0,0-.533.533V111.6A.533.533,0,0,0,66.534,112.134Z" transform="translate(-37.868 -104.136)"/>
      <path id="Path_19729" data-name="Path 19729" class="cls-2" d="M66.534,182.134H67.6a.533.533,0,0,0,.533-.533v-1.066A.533.533,0,0,0,67.6,180H66.534a.533.533,0,0,0-.533.533V181.6A.533.533,0,0,0,66.534,182.134Z" transform="translate(-37.868 -170.405)"/>
      <path id="Path_19730" data-name="Path 19730" class="cls-2" d="M66.534,252.133H67.6a.533.533,0,0,0,.533-.533v-1.066A.533.533,0,0,0,67.6,250H66.534a.533.533,0,0,0-.533.533V251.6A.533.533,0,0,0,66.534,252.133Z" transform="translate(-37.868 -236.672)"/>
      <path id="Path_19731" data-name="Path 19731" class="cls-2" d="M66.534,322.132H67.6a.533.533,0,0,0,.533-.533v-1.066A.533.533,0,0,0,67.6,320H66.534a.533.533,0,0,0-.533.533V321.6A.533.533,0,0,0,66.534,322.132Z" transform="translate(-37.868 -302.94)"/>
      <path id="Path_19732" data-name="Path 19732" class="cls-2" d="M207.6,40h-1.066a.533.533,0,0,0-.533.533V41.6a.533.533,0,0,0,.533.533H207.6a.533.533,0,0,0,.533-.533V40.534A.533.533,0,0,0,207.6,40Z" transform="translate(-170.405 -37.868)"/>
      <path id="Path_19733" data-name="Path 19733" class="cls-2" d="M207.6,110h-1.066a.533.533,0,0,0-.533.533V111.6a.533.533,0,0,0,.533.533H207.6a.533.533,0,0,0,.533-.533v-1.066A.533.533,0,0,0,207.6,110Z" transform="translate(-170.405 -104.136)"/>
      <path id="Path_19734" data-name="Path 19734" class="cls-2" d="M207.6,180h-1.066a.533.533,0,0,0-.533.533V181.6a.533.533,0,0,0,.533.533H207.6a.533.533,0,0,0,.533-.533v-1.066A.533.533,0,0,0,207.6,180Z" transform="translate(-170.405 -170.404)"/>
      <path id="Path_19735" data-name="Path 19735" class="cls-2" d="M207.6,250h-1.066a.533.533,0,0,0-.533.533V251.6a.533.533,0,0,0,.533.533H207.6a.533.533,0,0,0,.533-.533v-1.066A.533.533,0,0,0,207.6,250Z" transform="translate(-170.405 -236.672)"/>
      <path id="Path_19736" data-name="Path 19736" class="cls-2" d="M207.6,320h-1.066a.533.533,0,0,0-.533.533V321.6a.533.533,0,0,0,.533.533H207.6a.533.533,0,0,0,.533-.533v-1.066A.533.533,0,0,0,207.6,320Z" transform="translate(-170.405 -302.94)"/>
      <path id="Path_19737" data-name="Path 19737" class="cls-2" d="M392.6,180h-1.066a.533.533,0,0,0-.533.533V181.6a.533.533,0,0,0,.533.533H392.6a.533.533,0,0,0,.533-.533v-1.066A.533.533,0,0,0,392.6,180Z" transform="translate(-345.541 -170.404)"/>
      <path id="Path_19738" data-name="Path 19738" class="cls-2" d="M392.6,250h-1.066a.533.533,0,0,0-.533.533V251.6a.533.533,0,0,0,.533.533H392.6a.533.533,0,0,0,.533-.533v-1.066A.533.533,0,0,0,392.6,250Z" transform="translate(-345.541 -236.672)"/>
      <path id="Path_19739" data-name="Path 19739" class="cls-2" d="M392.6,320h-1.066a.533.533,0,0,0-.533.533V321.6a.533.533,0,0,0,.533.533H392.6a.533.533,0,0,0,.533-.533v-1.066A.533.533,0,0,0,392.6,320Z" transform="translate(-345.541 -302.94)"/>
      <path id="Path_19740" data-name="Path 19740" class="cls-2" d="M322.6,180h-1.066a.533.533,0,0,0-.533.533V181.6a.533.533,0,0,0,.533.533H322.6a.533.533,0,0,0,.533-.533v-1.066A.533.533,0,0,0,322.6,180Z" transform="translate(-279.274 -170.404)"/>
      <path id="Path_19741" data-name="Path 19741" class="cls-2" d="M322.6,250h-1.066a.533.533,0,0,0-.533.533V251.6a.533.533,0,0,0,.533.533H322.6a.533.533,0,0,0,.533-.533v-1.066A.533.533,0,0,0,322.6,250Z" transform="translate(-279.274 -236.672)"/>
      <path id="Path_19742" data-name="Path 19742" class="cls-2" d="M322.6,320h-1.066a.533.533,0,0,0-.533.533V321.6a.533.533,0,0,0,.533.533H322.6a.533.533,0,0,0,.533-.533v-1.066A.533.533,0,0,0,322.6,320Z" transform="translate(-279.274 -302.94)"/>
    </g>
  </g>
</svg>
