<svg xmlns="http://www.w3.org/2000/svg" width="45" height="45" viewBox="0 0 45 45">
  <defs>
    <style>
      .cls-1 {
        fill: rgba(255,255,255,0.16);
      }

      .cls-2 {
        fill: #fff;
      }
    </style>
  </defs>
  <g id="tv_ic1" transform="translate(-12 -125)">
    <g id="Group_1014" data-name="Group 1014">
      <g id="Component_21_57" data-name="Component 21 – 57" transform="translate(12 125)">
        <rect id="Rectangle_436" data-name="Rectangle 436" class="cls-1" width="45" height="45" rx="8"/>
      </g>
    </g>
    <g id="Group_1312" data-name="Group 1312" transform="translate(2489.722 -565.877)">
      <g id="Group_1311" data-name="Group 1311" transform="translate(-2459.608 706.32)">
        <path id="Path_19711" data-name="Path 19711" class="cls-2" d="M-2405.555,745.37a6.77,6.77,0,0,0,6.763,6.763,6.719,6.719,0,0,0,3.276-.849l.991,1.2-.067.058a.929.929,0,0,0-.092,1.309l3.01,3.465a2.133,2.133,0,0,0,1.471.734,2.133,2.133,0,0,0,1.559-.521,2.132,2.132,0,0,0,.734-1.471c0-.051,0-.1,0-.154a2.132,2.132,0,0,0-.526-1.405l-3.01-3.465a.929.929,0,0,0-1.212-.164l-.957-1.162a6.73,6.73,0,0,0,1.583-4.341,6.77,6.77,0,0,0-6.763-6.763A6.77,6.77,0,0,0-2405.555,745.37Zm10.758,5.452a6.829,6.829,0,0,0,.6-.492l.9,1.093-.583.507Zm2.713.772,3.01,3.465a1.287,1.287,0,0,1,.315.943,1.291,1.291,0,0,1-.444.889,1.3,1.3,0,0,1-1.832-.129l-3.01-3.465a.076.076,0,0,1-.019-.051v-.006a.076.076,0,0,1,.027-.054l1.842-1.6a.076.076,0,0,1,.057-.019A.077.077,0,0,1-2392.084,751.593Zm-.794-6.224a5.921,5.921,0,0,1-5.914,5.914,5.92,5.92,0,0,1-5.914-5.914,5.92,5.92,0,0,1,5.914-5.914A5.921,5.921,0,0,1-2392.878,745.37Z" transform="translate(2405.555 -738.607)"/>
        <path id="Path_19712" data-name="Path 19712" class="cls-2" d="M-2391.434,756.781a4.756,4.756,0,0,0,4.75,4.75,4.756,4.756,0,0,0,4.75-4.75,4.756,4.756,0,0,0-4.75-4.75A4.756,4.756,0,0,0-2391.434,756.781Zm8.652,0a3.906,3.906,0,0,1-3.9,3.9,3.906,3.906,0,0,1-3.9-3.9,3.906,3.906,0,0,1,3.9-3.9A3.906,3.906,0,0,1-2382.782,756.781Z" transform="translate(2393.471 -750.093)"/>
      </g>
      <path id="Path_19713" data-name="Path 19713" class="cls-2" d="M-2441.176,753.363a.475.475,0,0,0-.417.519.475.475,0,0,0,.417.519h5.888a6.79,6.79,0,0,1,.805-1.039Z" transform="translate(-23.215 -44.913)"/>
      <path id="Path_19714" data-name="Path 19714" class="cls-2" d="M-2441.176,739.863a.475.475,0,0,0-.417.52.475.475,0,0,0,.417.519h7.745a6.741,6.741,0,0,1,2.322-1.039Z" transform="translate(-23.215 -33.361)"/>
      <path id="Path_19715" data-name="Path 19715" class="cls-2" d="M-2441.176,792.03a.475.475,0,0,0-.417.519.475.475,0,0,0,.417.52h5.138a6.746,6.746,0,0,1-.227-1.039Z" transform="translate(-23.215 -78.002)"/>
      <path id="Path_19716" data-name="Path 19716" class="cls-2" d="M-2436.254,778.53h-4.922a.475.475,0,0,0-.417.519.475.475,0,0,0,.417.519h4.847c0-.008,0-.015,0-.023A6.828,6.828,0,0,1-2436.254,778.53Z" transform="translate(-23.215 -66.45)"/>
      <path id="Path_19717" data-name="Path 19717" class="cls-2" d="M-2441.176,829.363a.475.475,0,0,0-.417.519.475.475,0,0,0,.417.519h10.711a.475.475,0,0,0,.417-.519.651.651,0,0,0-.006-.082,6.738,6.738,0,0,1-1.947-.437Z" transform="translate(-23.215 -109.949)"/>
      <path id="Path_19718" data-name="Path 19718" class="cls-2" d="M-2434.73,815.863h-6.446a.475.475,0,0,0-.417.519.475.475,0,0,0,.417.519h7.542A6.846,6.846,0,0,1-2434.73,815.863Z" transform="translate(-23.215 -98.396)"/>
      <path id="Path_19719" data-name="Path 19719" class="cls-2" d="M-2451.208,706.484a6.762,6.762,0,0,1,1.184.4V702.06a1.143,1.143,0,0,0-.37-.841,1.28,1.28,0,0,0-.879-.342h-16.2a1.234,1.234,0,0,0-1.249,1.183v22.377a1.233,1.233,0,0,0,1.249,1.183h16.2a1.233,1.233,0,0,0,1.249-1.183V719.3a6.793,6.793,0,0,1-1.184.4v4.772h-16.331V702h16.331Z" transform="translate(0 0)"/>
      <path id="Path_19720" data-name="Path 19720" class="cls-2" d="M-2376.908,776.827a.431.431,0,0,1-.306-.127l-1.343-1.343a.432.432,0,0,1,0-.611.432.432,0,0,1,.611,0l1.044,1.044,2.1-2a.432.432,0,0,1,.611.014.432.432,0,0,1-.014.611l-2.4,2.294A.43.43,0,0,1-2376.908,776.827Z" transform="translate(-76.276 -61.76)"/>
    </g>
  </g>
</svg>
