<svg xmlns="http://www.w3.org/2000/svg" xmlns:xlink="http://www.w3.org/1999/xlink" width="18" height="18" viewBox="0 0 18 18">
  <defs>
    <clipPath id="clip-chinh_sua">
      <rect width="18" height="18"/>
    </clipPath>
  </defs>
  <g id="chinh_sua" data-name="chinh sua" clip-path="url(#clip-chinh_sua)">
    <g id="Group_604" data-name="Group 604" transform="translate(1.985 1.043)">
      <g id="Group_603" data-name="Group 603">
        <path id="Path_19037" data-name="Path 19037" d="M4288-11638.08h.085l4.09-.889a.383.383,0,0,0,.211-.105l6.928-6.9a2.649,2.649,0,0,0,.784-1.9,2.741,2.741,0,0,0-.784-1.924,2.661,2.661,0,0,0-1.906-.779,2.609,2.609,0,0,0-1.908.8l-6.907,6.905a.385.385,0,0,0-.127.189l-.89,4.075a.456.456,0,0,0,.126.4A.425.425,0,0,0,4288-11638.08Zm9.409-11.657a1.842,1.842,0,0,1,1.844,1.837v.022a1.775,1.775,0,0,1-.53,1.288l-2.605-2.619A1.815,1.815,0,0,1,4297.406-11649.737Zm-1.887,1.142,2.606,2.6-6.039,6-2.606-2.576Zm-6.377,6.861,2.1,2.091-2.692.592Z" transform="translate(-4286.834 11650.581)" fill="#1ba0e1"/>
        <path id="Path_19038" data-name="Path 19038" d="M4301.232-11631.475h-14.189a.423.423,0,0,0-.423.423.424.424,0,0,0,.423.423h14.189a.423.423,0,0,0,.423-.423A.422.422,0,0,0,4301.232-11631.475Z" transform="translate(-4286.62 11646.431)" fill="#1ba0e1"/>
      </g>
    </g>
  </g>
</svg>
