<svg xmlns="http://www.w3.org/2000/svg" width="17.473" height="16.38" viewBox="0 0 17.473 16.38">
  <defs>
    <style>
      .cls-1 {
        fill: #fff;
      }
    </style>
  </defs>
  <g id="excel_1_" data-name="excel (1)" transform="translate(0 -16.01)">
    <g id="Group_1032" data-name="Group 1032" transform="translate(0 16.01)">
      <g id="Group_1031" data-name="Group 1031" transform="translate(0 0)">
        <path id="Path_19496" data-name="Path 19496" class="cls-1" d="M9.631,16.135a.55.55,0,0,0-.449-.116L.446,17.657A.544.544,0,0,0,0,18.193V30.206a.545.545,0,0,0,.446.536l8.737,1.638a.522.522,0,0,0,.1.01.546.546,0,0,0,.546-.546V16.555A.545.545,0,0,0,9.631,16.135ZM8.737,31.186,1.092,29.753V18.647l7.645-1.433Z" transform="translate(0 -16.01)"/>
      </g>
    </g>
    <g id="Group_1034" data-name="Group 1034" transform="translate(8.737 18.193)">
      <g id="Group_1033" data-name="Group 1033">
        <path id="Path_19497" data-name="Path 19497" class="cls-1" d="M264.191,79.99h-7.645a.546.546,0,1,0,0,1.092h7.1v9.829h-7.1a.546.546,0,1,0,0,1.092h7.645a.546.546,0,0,0,.546-.546V80.536A.546.546,0,0,0,264.191,79.99Z" transform="translate(-256 -79.99)"/>
      </g>
    </g>
    <g id="Group_1036" data-name="Group 1036" transform="translate(8.737 20.377)">
      <g id="Group_1035" data-name="Group 1035" transform="translate(0 0)">
        <path id="Path_19498" data-name="Path 19498" class="cls-1" d="M258.73,143.99h-2.184a.546.546,0,1,0,0,1.092h2.184a.546.546,0,1,0,0-1.092Z" transform="translate(-256 -143.99)"/>
      </g>
    </g>
    <g id="Group_1038" data-name="Group 1038" transform="translate(8.737 22.562)">
      <g id="Group_1037" data-name="Group 1037" transform="translate(0 0)">
        <path id="Path_19499" data-name="Path 19499" class="cls-1" d="M258.73,207.99h-2.184a.546.546,0,1,0,0,1.092h2.184a.546.546,0,1,0,0-1.092Z" transform="translate(-256 -207.99)"/>
      </g>
    </g>
    <g id="Group_1040" data-name="Group 1040" transform="translate(8.737 24.746)">
      <g id="Group_1039" data-name="Group 1039" transform="translate(0 0)">
        <path id="Path_19500" data-name="Path 19500" class="cls-1" d="M258.73,271.99h-2.184a.546.546,0,1,0,0,1.092h2.184a.546.546,0,1,0,0-1.092Z" transform="translate(-256 -271.99)"/>
      </g>
    </g>
    <g id="Group_1042" data-name="Group 1042" transform="translate(8.737 26.93)">
      <g id="Group_1041" data-name="Group 1041">
        <path id="Path_19501" data-name="Path 19501" class="cls-1" d="M258.73,335.99h-2.184a.546.546,0,1,0,0,1.092h2.184a.546.546,0,1,0,0-1.092Z" transform="translate(-256 -335.99)"/>
      </g>
    </g>
    <g id="Group_1044" data-name="Group 1044" transform="translate(13.105 20.377)">
      <g id="Group_1043" data-name="Group 1043" transform="translate(0 0)">
        <path id="Path_19502" data-name="Path 19502" class="cls-1" d="M385.638,143.99h-1.092a.546.546,0,0,0,0,1.092h1.092a.546.546,0,0,0,0-1.092Z" transform="translate(-384 -143.99)"/>
      </g>
    </g>
    <g id="Group_1046" data-name="Group 1046" transform="translate(13.105 22.562)">
      <g id="Group_1045" data-name="Group 1045" transform="translate(0 0)">
        <path id="Path_19503" data-name="Path 19503" class="cls-1" d="M385.638,207.99h-1.092a.546.546,0,0,0,0,1.092h1.092a.546.546,0,0,0,0-1.092Z" transform="translate(-384 -207.99)"/>
      </g>
    </g>
    <g id="Group_1048" data-name="Group 1048" transform="translate(13.105 24.746)">
      <g id="Group_1047" data-name="Group 1047" transform="translate(0 0)">
        <path id="Path_19504" data-name="Path 19504" class="cls-1" d="M385.638,271.99h-1.092a.546.546,0,0,0,0,1.092h1.092a.546.546,0,0,0,0-1.092Z" transform="translate(-384 -271.99)"/>
      </g>
    </g>
    <g id="Group_1050" data-name="Group 1050" transform="translate(13.105 26.93)">
      <g id="Group_1049" data-name="Group 1049">
        <path id="Path_19505" data-name="Path 19505" class="cls-1" d="M385.638,335.99h-1.092a.546.546,0,0,0,0,1.092h1.092a.546.546,0,0,0,0-1.092Z" transform="translate(-384 -335.99)"/>
      </g>
    </g>
    <g id="Group_1052" data-name="Group 1052" transform="translate(2.73 21.469)">
      <g id="Group_1051" data-name="Group 1051" transform="translate(0 0)">
        <path id="Path_19506" data-name="Path 19506" class="cls-1" d="M84.784,180.539l-3.822-4.368a.546.546,0,0,0-.822.719l3.822,4.368a.546.546,0,0,0,.822-.719Z" transform="translate(-80.004 -175.984)"/>
      </g>
    </g>
    <g id="Group_1054" data-name="Group 1054" transform="translate(2.73 20.924)">
      <g id="Group_1053" data-name="Group 1053">
        <path id="Path_19507" data-name="Path 19507" class="cls-1" d="M84.7,160.108a.546.546,0,0,0-.767.1l-3.822,4.914a.546.546,0,0,0,.862.672l3.822-4.914A.546.546,0,0,0,84.7,160.108Z" transform="translate(-79.999 -159.992)"/>
      </g>
    </g>
  </g>
</svg>
