<svg xmlns="http://www.w3.org/2000/svg" width="12.701" height="11.659" viewBox="0 0 12.701 11.659">
  <defs>
    <style>
      .cls-1 {
        fill: #fff;
        stroke: #fff;
        stroke-width: 0.2px;
      }
    </style>
  </defs>
  <g id="feedback" transform="translate(0.1 -21.233)">
    <g id="Group_1026" data-name="Group 1026" transform="translate(0 21.333)">
      <g id="Group_1025" data-name="Group 1025" transform="translate(0 0)">
        <path id="Path_19487" data-name="Path 19487" class="cls-1" d="M106.926,128.52h5.73a.26.26,0,1,0,0-.521h-5.73a.26.26,0,1,0,0,.521Z" transform="translate(-104.062 -125.395)"/>
        <path id="Path_19488" data-name="Path 19488" class="cls-1" d="M110.052,256h-3.125a.26.26,0,1,0,0,.521h3.125a.26.26,0,1,0,0-.521Z" transform="translate(-104.062 -250.27)"/>
        <path id="Path_19489" data-name="Path 19489" class="cls-1" d="M11.5,22.375c-.015,0-.03,0-.045,0v0a1.043,1.043,0,0,0-1.042-1.042H1.042A1.043,1.043,0,0,0,0,22.375V32.532a.261.261,0,0,0,.161.241.257.257,0,0,0,.1.02.26.26,0,0,0,.184-.076l2.528-2.528h7.445a1.043,1.043,0,0,0,1.042-1.042v-4.32l.75-.75h0a1,1,0,0,0-.705-1.7Zm-.566,6.771a.521.521,0,0,1-.521.521H2.865a.26.26,0,0,0-.184.076L.521,31.9V22.375a.521.521,0,0,1,.521-.521h9.376a.521.521,0,0,1,.521.521v.178a.98.98,0,0,0-.139.114L7.965,25.5h-5.1a.26.26,0,1,0,0,.521H7.548L7.3,27.272a.26.26,0,0,0,.255.312.266.266,0,0,0,.051-.005l1.3-.26a.259.259,0,0,0,.133-.071l1.9-1.9ZM8.726,26.823l-.841.168.168-.842,2.364-2.364.674.674Zm3.115-3.114-.382.382-.674-.674.382-.382a.476.476,0,0,1,.674.674Z" transform="translate(0 -21.333)"/>
      </g>
    </g>
  </g>
</svg>
