<svg xmlns="http://www.w3.org/2000/svg" width="24" height="24" viewBox="0 0 24 24">
  <defs>
    <style>
      .cls-1 {
        fill: #2386ea;
      }

      .cls-2 {
        fill: #fff;
      }
    </style>
  </defs>
  <g id="Group_447" data-name="Group 447" transform="translate(247.992 -3265.222)">
    <circle id="Ellipse_22" data-name="Ellipse 22" class="cls-1" cx="12" cy="12" r="12" transform="translate(-247.992 3265.222)"/>
    <path id="Path_14253" data-name="Path 14253" class="cls-2" d="M-234.755,3282.48a.557.557,0,0,1-.393-.163l-4.454-4.454a.557.557,0,0,1,0-.787l4.454-4.454a.557.557,0,0,1,.787,0,.555.555,0,0,1,0,.787l-4.06,4.06,4.06,4.06a.556.556,0,0,1,0,.788A.558.558,0,0,1-234.755,3282.48Z"/>
  </g>
</svg>
