<svg xmlns="http://www.w3.org/2000/svg" width="18.396" height="19.472" viewBox="0 0 18.396 19.472">
  <defs>
    <style>
      .cls-1 {
        fill: #1ba0e1;
        stroke: #1ba0e1;
        stroke-width: 0.4px;
      }
    </style>
  </defs>
  <g id="Group_873" data-name="Group 873" transform="translate(-1051.666 -1622.809)">
    <path id="Path_19402" data-name="Path 19402" class="cls-1" d="M1068.959,1640.012l-.775-.056v-7.774h.836a.951.951,0,0,0,.84-1.038,1.141,1.141,0,0,0-.416-.916l-8.153-7.048a.616.616,0,0,0-.849,0l-8.2,7.095a1.224,1.224,0,0,0-.312,1.232.838.838,0,0,0,.738.677h.836l.045.838v6.936l-.777.056a.966.966,0,0,0-.747,1.031c0,.563.361,1.039.787,1.039h16.1c.427,0,.787-.477.787-1.039A.966.966,0,0,0,1068.959,1640.012Zm-.04,1.616h-16.1c-.134,0-.334-.247-.334-.588s.194-.566.326-.577l1.2-.087V1633l-.067-1.268h-1.266c-.1,0-.236-.121-.3-.348a.785.785,0,0,1,.17-.764l8.2-7.094a.2.2,0,0,1,.127-.06.21.21,0,0,1,.131.062l8.18,7.07a.7.7,0,0,1,.23.548c0,.317-.176.586-.388.586h-1.29v8.648l1.2.087c.134.011.327.24.327.577S1069.054,1641.628,1068.919,1641.628Z" transform="translate(0 0)"/>
    <path id="Path_19403" data-name="Path 19403" class="cls-1" d="M1058.895,1628.065h-2.778v7.821h2.778Zm-.455,7.367h-1.869v-6.914h1.869Z" transform="translate(3.448 4.116)"/>
    <path id="Path_19404" data-name="Path 19404" class="cls-1" d="M1056.5,1628.065h-2.779v7.821h2.779Zm-.455,7.367h-1.87v-6.914h1.87Z" transform="translate(1.494 4.116)"/>
    <path id="Path_19405" data-name="Path 19405" class="cls-1" d="M1061.294,1628.065h-2.778v7.821h2.778Zm-.452,7.367h-1.872v-6.914h1.872Z" transform="translate(5.402 4.116)"/>
    <path id="Path_19406" data-name="Path 19406" class="cls-1" d="M1059.211,1626.145l-1.132-.165-.507-1.026-.5,1.026-1.134.165.82.8-.193,1.127,1.012-.531,1.013.531-.193-1.127Z" transform="translate(3.299 1.584)"/>
  </g>
</svg>
