<svg xmlns="http://www.w3.org/2000/svg" width="14.269" height="14.269" viewBox="0 0 14.269 14.269">
  <defs>
    <style>
      .cls-1 {
        fill: #003173;
      }
    </style>
  </defs>
  <g id="Group_470" data-name="Group 470" transform="translate(1125.736 -2666.079)">
    <path id="Path_14239" data-name="Path 14239" class="cls-1" d="M-1111.642,2679.335l-3.431-3.431a5.986,5.986,0,0,0,1.363-3.812,6.015,6.015,0,0,0-6.013-6.013,6.013,6.013,0,0,0-6.013,6.013,6.013,6.013,0,0,0,6.013,6.014,5.986,5.986,0,0,0,3.809-1.36l3.43,3.427a.6.6,0,0,0,.842,0A.59.59,0,0,0-1111.642,2679.335Zm-8.081-2.426a4.822,4.822,0,0,1-4.819-4.817,4.825,4.825,0,0,1,4.819-4.819,4.827,4.827,0,0,1,4.819,4.819A4.824,4.824,0,0,1-1119.723,2676.909Z"/>
  </g>
</svg>
