<svg xmlns="http://www.w3.org/2000/svg" width="45" height="45" viewBox="0 0 45 45">
  <defs>
    <style>
      .cls-1 {
        fill: rgba(255,255,255,0.16);
      }

      .cls-2 {
        fill: #fff;
      }
    </style>
  </defs>
  <g id="main_ql_ic5" transform="translate(-12 -346)">
    <g id="Group_879" data-name="Group 879" transform="translate(0 112)">
      <g id="Component_21_35" data-name="Component 21 – 35" transform="translate(12 234)">
        <rect id="Rectangle_436" data-name="Rectangle 436" class="cls-1" width="45" height="45" rx="8"/>
      </g>
    </g>
    <g id="Group_1297" data-name="Group 1297" transform="translate(-155.601 -64.601)">
      <path id="Path_19416" data-name="Path 19416" class="cls-2" d="M4612.664,1046a5.325,5.325,0,0,0-.036-.614,5.207,5.207,0,0,0-.114-.635,5.326,5.326,0,0,0-1.917-2.965,5.451,5.451,0,0,0-.672-.442,3.389,3.389,0,1,0-5-.068A5.249,5.249,0,0,0,4602,1046v2.026h10.688Zm-5.207-9.581a2.6,2.6,0,0,1,1.184,4.926,4.834,4.834,0,0,1-1.242.2,4.4,4.4,0,0,1-1.161-.223,2.605,2.605,0,0,1,1.219-4.908Zm-4.675,10.826V1046a4.475,4.475,0,0,1,2.716-4.129,3.3,3.3,0,0,0,.447.182,3.381,3.381,0,0,0,2.991.017,3.131,3.131,0,0,0,.4-.154,4.551,4.551,0,0,1,2.366,2.833,4.334,4.334,0,0,1,.133.635,4.519,4.519,0,0,1,.042.616l.015,1.242Z" transform="translate(-4417.38 -609.108)"/>
      <g id="settings_4_" data-name="settings (4)" transform="translate(175.507 418.507)">
        <g id="Group_848" data-name="Group 848" transform="translate(0 0)">
          <g id="Group_847" data-name="Group 847">
            <path id="Path_19391" data-name="Path 19391" class="cls-2" d="M26.424,170.712h-.786a.7.7,0,0,1-.661-.461c-.087-.229-.181-.452-.281-.673a.7.7,0,0,1,.143-.8l.56-.561a2.147,2.147,0,0,0,0-3.027l-2.018-2.018a2.147,2.147,0,0,0-3.028,0l-.56.559a.707.707,0,0,1-.8.143c-.221-.1-.445-.194-.674-.286a.7.7,0,0,1-.463-.663v-.786A2.142,2.142,0,0,0,15.712,160H12.855a2.142,2.142,0,0,0-2.142,2.143v.786a.7.7,0,0,1-.461.661c-.229.087-.452.181-.673.281a.706.706,0,0,1-.8-.143l-.561-.56a2.148,2.148,0,0,0-3.027,0l-2.018,2.025a2.147,2.147,0,0,0,0,3.028l.559.56a.7.7,0,0,1,.143.8c-.1.221-.194.445-.282.674a.7.7,0,0,1-.666.461H2.142A2.142,2.142,0,0,0,0,172.855v2.857a2.142,2.142,0,0,0,2.142,2.143h.786a.7.7,0,0,1,.661.461c.087.229.181.452.281.673a.7.7,0,0,1-.143.8l-.56.561a2.147,2.147,0,0,0,0,3.027l2.018,2.018a2.147,2.147,0,0,0,3.028,0l.56-.559a.707.707,0,0,1,.8-.143c.221.1.445.194.674.286a.7.7,0,0,1,.467.663v.786a2.142,2.142,0,0,0,2.142,2.143h2.857a2.142,2.142,0,0,0,2.142-2.143v-.786a.7.7,0,0,1,.461-.661c.229-.087.452-.181.673-.281a.706.706,0,0,1,.8.143l.561.56a2.148,2.148,0,0,0,3.027,0l2.018-2.018a2.147,2.147,0,0,0,0-3.028l-.559-.56a.7.7,0,0,1-.143-.8c.1-.221.194-.445.286-.674a.7.7,0,0,1,.663-.463h.786a2.142,2.142,0,0,0,2.142-2.143v-2.857A2.142,2.142,0,0,0,26.424,170.712Zm.714,5a.714.714,0,0,1-.714.714h-.786a2.15,2.15,0,0,0-2,1.381q-.114.3-.246.591a2.149,2.149,0,0,0,.428,2.4l.558.559a.714.714,0,0,1,0,1.01h0l-2.018,2.018a.714.714,0,0,1-1.01,0l-.56-.559a2.147,2.147,0,0,0-2.4-.428c-.194.088-.391.17-.589.246a2.149,2.149,0,0,0-1.38,2v.786a.714.714,0,0,1-.714.714H12.855a.714.714,0,0,1-.714-.714v-.786a2.15,2.15,0,0,0-1.381-2q-.3-.114-.591-.246a2.15,2.15,0,0,0-2.4.429l-.559.558a.714.714,0,0,1-1.01,0h0l-2.018-2.016a.714.714,0,0,1,0-1.01l.559-.56a2.149,2.149,0,0,0,.428-2.4c-.088-.194-.17-.391-.246-.589a2.149,2.149,0,0,0-2-1.383H2.142a.714.714,0,0,1-.714-.714v-2.857a.714.714,0,0,1,.714-.714h.786a2.15,2.15,0,0,0,2-1.381q.114-.3.246-.591a2.149,2.149,0,0,0-.428-2.4l-.561-.559a.714.714,0,0,1,0-1.01h0L6.2,164.184a.714.714,0,0,1,1.01,0l.56.559a2.147,2.147,0,0,0,2.4.429c.194-.088.391-.17.589-.246a2.149,2.149,0,0,0,1.383-2v-.786a.714.714,0,0,1,.714-.714h2.857a.714.714,0,0,1,.714.714v.786a2.15,2.15,0,0,0,1.381,2q.3.114.591.246a2.147,2.147,0,0,0,2.4-.428l.559-.559a.718.718,0,0,1,1.011,0l2.018,2.018a.714.714,0,0,1,0,1.01l-.559.56a2.149,2.149,0,0,0-.428,2.4c.088.194.17.391.246.589a2.149,2.149,0,0,0,2,1.38h.786a.714.714,0,0,1,.714.714Z" transform="translate(0 -160)"/>
          </g>
        </g>
      </g>
    </g>
  </g>
</svg>
