<svg xmlns="http://www.w3.org/2000/svg" width="45" height="45" viewBox="0 0 45 45">
  <defs>
    <style>
      .cls-1 {
        fill: rgba(255,255,255,0.16);
      }

      .cls-2 {
        fill: #fff;
        stroke: #fff;
        stroke-width: 0.1px;
      }
    </style>
  </defs>
  <g id="main_ql_ic2" transform="translate(-12 -180)">
    <g id="Group_1360" data-name="Group 1360">
      <g id="Component_21_32" data-name="Component 21 – 32" transform="translate(12 180)">
        <rect id="Rectangle_436" data-name="Rectangle 436" class="cls-1" width="45" height="45" rx="8"/>
      </g>
      <g id="Group_1291" data-name="Group 1291" transform="translate(-4515.339 -838.7)">
        <path id="Path_19412" data-name="Path 19412" class="cls-2" d="M4701.5,1042.041a5.2,5.2,0,0,1,2.675-2.607,3.817,3.817,0,0,0,.517.211,3.915,3.915,0,0,0,3.466.019,3.615,3.615,0,0,0,.467-.178,5.276,5.276,0,0,1,2.944,4.731l.017,1.439h-8.053a7.392,7.392,0,0,1,.162.907h8.809l-.027-2.349a6.181,6.181,0,0,0-3.172-5.395,3.927,3.927,0,1,0-5.791-.077,6.1,6.1,0,0,0-2.721,2.677A7.625,7.625,0,0,1,4701.5,1042.041Zm1.925-5.908a3.019,3.019,0,1,1,4.391,2.688,5.591,5.591,0,0,1-1.438.238,5.072,5.072,0,0,1-1.345-.259A3.021,3.021,0,0,1,4703.426,1036.133Z" transform="translate(-147.692 0)"/>
        <path id="Path_19415" data-name="Path 19415" class="cls-2" d="M4543.5,1041.412a6.16,6.16,0,0,0-2.755-2.669,3.926,3.926,0,1,0-5.791.077,6.179,6.179,0,0,0-3.171,5.395l-.028,2.349h8.808a7.583,7.583,0,0,1,.163-.907h-8.053l.017-1.439a5.275,5.275,0,0,1,2.944-4.731,3.626,3.626,0,0,0,.466.178,3.917,3.917,0,0,0,3.467-.019,3.826,3.826,0,0,0,.518-.211,9.68,9.68,0,0,1,2.709,2.6S4543.254,1041.6,4543.5,1041.412Zm-4.273-2.612a5.072,5.072,0,0,1-1.345.259,5.588,5.588,0,0,1-1.438-.238,3.018,3.018,0,1,1,2.784-.021Z" transform="translate(2.64 0)"/>
        <path id="Path_19416" data-name="Path 19416" class="cls-2" d="M4617.235,1051.64a8.858,8.858,0,0,0-.214-1.928,8.439,8.439,0,0,0-2.032-3.908,7.756,7.756,0,0,0-.708-.672,7.647,7.647,0,0,0-.96-.682,5.451,5.451,0,0,0,1.317-3.583,4.856,4.856,0,1,0-9.683,0,5.458,5.458,0,0,0,1.227,3.478,8.194,8.194,0,0,0-4.184,7.3v3.129h15.27Zm-7.439-14.8a3.887,3.887,0,0,1,3.722,4.024,4.074,4.074,0,0,1-2.031,3.583,6.434,6.434,0,0,1-1.773.316,5.859,5.859,0,0,1-1.659-.345,4.081,4.081,0,0,1-1.981-3.555A3.887,3.887,0,0,1,4609.8,1036.843Zm-6.679,16.72v-1.919a6.947,6.947,0,0,1,3.881-6.376,4.377,4.377,0,0,0,.638.282,4.508,4.508,0,0,0,4.274.026,4.248,4.248,0,0,0,.574-.238,6.437,6.437,0,0,1,1.363.973,6.728,6.728,0,0,1,.753.824,7.258,7.258,0,0,1,1.264,2.577,7.432,7.432,0,0,1,.19.981,7.571,7.571,0,0,1,.061.951l.021,1.919Z" transform="translate(-60.023 -3)"/>
      </g>
    </g>
  </g>
</svg>
