<svg xmlns="http://www.w3.org/2000/svg" width="14.474" height="15.199" viewBox="0 0 14.474 15.199">
  <defs>
    <style>
      .cls-1 {
        fill: #606060;
        stroke: #707070;
        stroke-width: 0.2px;
      }
    </style>
  </defs>
  <g id="Component_20_98" data-name="Component 20 – 98" transform="translate(0.1 0.1)">
    <g id="Group_604" data-name="Group 604">
      <g id="Group_603" data-name="Group 603">
        <path id="Path_19037" data-name="Path 19037" class="cls-1" d="M4287.976-11638.715h.081l3.882-.844a.36.36,0,0,0,.2-.1l6.577-6.555a2.513,2.513,0,0,0,.744-1.8,2.6,2.6,0,0,0-.744-1.826,2.528,2.528,0,0,0-1.809-.74,2.48,2.48,0,0,0-1.811.762l-6.557,6.555a.367.367,0,0,0-.121.18l-.844,3.869a.433.433,0,0,0,.12.381A.4.4,0,0,0,4287.976-11638.715Zm8.932-11.066a1.749,1.749,0,0,1,1.75,1.744v.021a1.683,1.683,0,0,1-.5,1.223l-2.473-2.486A1.728,1.728,0,0,1,4296.907-11649.781Zm-1.791,1.084,2.474,2.465-5.732,5.693-2.474-2.445Zm-6.054,6.514,1.991,1.984-2.555.563Z" transform="translate(-4286.872 11650.582)"/>
        <path id="Path_19038" data-name="Path 19038" class="cls-1" d="M4300.492-11631.476h-13.47a.4.4,0,0,0-.4.4.4.4,0,0,0,.4.4h13.47a.4.4,0,0,0,.4-.4A.4.4,0,0,0,4300.492-11631.476Z" transform="translate(-4286.62 11645.673)"/>
      </g>
    </g>
  </g>
</svg>
