<svg xmlns="http://www.w3.org/2000/svg" width="81.27" height="72.799" viewBox="0 0 81.27 72.799">
  <defs>
    <style>
      .cls-1 {
        fill: #003173;
      }

      .cls-2 {
        fill: #1ba0e1;
      }
    </style>
  </defs>
  <g id="ql_pages_ic2" transform="translate(-1396.334 -1623.131)">
    <g id="Group_1378" data-name="Group 1378" transform="translate(-364 50)">
      <g id="Group_1377" data-name="Group 1377">
        <g id="Group_1370" data-name="Group 1370" transform="translate(5551.366 2201.789)">
          <path id="Path_19591" data-name="Path 19591" class="cls-1" d="M-3758.784-525.794c-.1-1.932-.188-3.666-.284-5.53-.461-.028-.92-.079-1.379-.08q-13.01-.013-26.02-.016c-3.329,0-4.551-1.25-4.553-4.622q0-5.791,0-11.583c.008-2.906,1.353-4.248,4.286-4.25,13.222-.007,26.444.009,39.665-.029a7.591,7.591,0,0,0,2.886-.6,24.65,24.65,0,0,1,27.148,5.169,24.56,24.56,0,0,1,5.216,27.259,25.1,25.1,0,0,1-23.51,14.827c-15.811-.171-31.625-.027-47.437-.018-1.481,0-2.964.04-4.442-.017a3.645,3.645,0,0,1-3.807-3.956q-.036-6.267,0-12.535c.013-2.576,1.449-4,4.056-4.009q13.168-.028,26.337-.013Zm2.27-4.115a22.163,22.163,0,0,0,21.882,22.17,22.154,22.154,0,0,0,22.378-22.149,22.177,22.177,0,0,0-22.2-22.178A22.168,22.168,0,0,0-3756.514-529.909Zm10.848,22.169c.665.047-.368-.474-.485-.54a24.411,24.411,0,0,1-11.641-14.065c-.273-.826-.73-.984-1.511-.982q-13.722.032-27.443,0c-1.283,0-1.812.479-1.8,1.776q.059,6.028,0,12.056c-.01,1.19.442,1.763,1.666,1.762C-3773.237-507.744-3759.6-507.74-3745.666-507.74Zm-3.965-41.49c.186-.358-.493-.19-.631-.19q-18.3-.015-36.608-.024c-1.214,0-1.687.547-1.677,1.745.033,3.856.009,7.712.012,11.569,0,2.1.176,2.283,2.238,2.284q13,0,25.99,0h1.582A25.219,25.219,0,0,1-3749.63-549.23Z" transform="translate(0 -50.614)"/>
          <path id="Path_19592" data-name="Path 19592" class="cls-1" d="M-3762.163-608.13q-12.139,0-24.278,0c-3.307,0-4.565-1.281-4.568-4.625,0-3.914-.011-7.828,0-11.742.01-2.687,1.409-4.142,4.1-4.145q24.833-.028,49.666,0c2.7,0,4.054,1.43,4.066,4.163q.028,6.109,0,12.218c-.011,2.735-1.366,4.121-4.082,4.127Q-3749.707-608.111-3762.163-608.13Zm.027-2.465c8.195,0,16.39-.022,24.584.02,1.44.008,1.993-.529,1.974-1.955q-.074-5.868-.01-11.737c.016-1.443-.588-1.942-2-1.939q-24.5.042-49.009,0c-1.442,0-1.971.543-1.949,1.974.058,3.859.011,7.719.022,11.578.005,1.889.182,2.057,2.123,2.058Q-3774.269-610.589-3762.135-610.6Z" transform="translate(-0.014 0)"/>
          <path id="Path_19593" data-name="Path 19593" class="cls-2" d="M-3626.686-507.285c0,3.487-.028,6.974.014,10.461.017,1.34-.5,1.909-1.869,1.9q-10.381-.051-20.763-.008c-1.37.006-1.867-.55-1.862-1.9q.043-13.71,0-27.42c0-1.357.51-1.9,1.872-1.883,4.755.043,9.51-.01,14.265.059a3.144,3.144,0,0,1,1.92.8q2.895,2.7,5.6,5.6a3.163,3.163,0,0,1,.778,1.926c.076,3.486.036,6.973.036,10.461Zm-21.895-16.261v26h19.284v-19.614c-1.614,0-3.09-.035-4.563.01-1.3.04-1.81-.552-1.77-1.82.049-1.513.012-3.029.012-4.575Z" transform="translate(-95.474 -69.988)"/>
          <path id="Path_19594" data-name="Path 19594" class="cls-1" d="M-3646.315-605.534a4.238,4.238,0,0,1-4.356,4.256,4.292,4.292,0,0,1-4.242-4.233,4.359,4.359,0,0,1,4.3-4.366A4.294,4.294,0,0,1-3646.315-605.534Z" transform="translate(-92.917 -12.82)"/>
          <rect id="Rectangle_807" data-name="Rectangle 807" class="cls-2" width="14.282" height="2.539" rx="1.27" transform="translate(-3741.51 -583.698)"/>
          <rect id="Rectangle_808" data-name="Rectangle 808" class="cls-2" width="14.282" height="2.539" rx="1.27" transform="translate(-3741.51 -578.302)"/>
          <rect id="Rectangle_809" data-name="Rectangle 809" class="cls-2" width="14.282" height="2.539" rx="1.27" transform="translate(-3741.51 -573.224)"/>
          <path id="Path_19595" data-name="Path 19595" class="cls-2" d="M-3751.013-601.661h-19.171a1.854,1.854,0,0,1-1.852-1.852v-6.136a1.854,1.854,0,0,1,1.852-1.852h19.171a1.854,1.854,0,0,1,1.852,1.852v6.136A1.854,1.854,0,0,1-3751.013-601.661Zm-19.118-1.9h19.066v-6.03h-19.066Z" transform="translate(-12.967 -11.712)"/>
          <path id="Path_19596" data-name="Path 19596" class="cls-2" d="M-3751.013-519.661h-19.171a1.854,1.854,0,0,1-1.852-1.852v-6.136a1.854,1.854,0,0,1,1.852-1.852h19.171a1.854,1.854,0,0,1,1.852,1.852v6.136A1.854,1.854,0,0,1-3751.013-519.661Zm-19.118-1.9h19.066v-6.03h-19.066Z" transform="translate(-12.967 -67.686)"/>
          <path id="Path_19597" data-name="Path 19597" class="cls-2" d="M-3751.013-437.661h-19.171a1.854,1.854,0,0,1-1.852-1.852v-6.136a1.854,1.854,0,0,1,1.852-1.852h19.171a1.854,1.854,0,0,1,1.852,1.852v6.136A1.854,1.854,0,0,1-3751.013-437.661Zm-19.118-1.9h19.066v-6.03h-19.066Z" transform="translate(-12.967 -123.661)"/>
        </g>
      </g>
    </g>
  </g>
</svg>
