<svg xmlns="http://www.w3.org/2000/svg" width="82.701" height="76.928" viewBox="0 0 82.701 76.928">
  <defs>
    <style>
      .cls-1 {
        fill: #1ba0e1;
      }

      .cls-2 {
        fill: #003173;
      }
    </style>
  </defs>
  <g id="ql_pages_ic1" transform="translate(-1760.366 -1459.185)">
    <g id="Group_1369" data-name="Group 1369" transform="translate(4229.088 758.308)">
      <path id="Path_19697" data-name="Path 19697" class="cls-1" d="M-2436.916,748.7h-6.984a2.381,2.381,0,0,1-2.379-2.378v-6.984a2.381,2.381,0,0,1,2.379-2.378h6.984a2.381,2.381,0,0,1,2.378,2.378v6.984A2.381,2.381,0,0,1-2436.916,748.7Zm-6.984-9.511a.149.149,0,0,0-.149.149v6.984a.149.149,0,0,0,.149.149h6.984a.15.15,0,0,0,.149-.149v-6.984a.15.15,0,0,0-.149-.149Z" transform="translate(-12.437 -19.995)"/>
      <path id="Path_19698" data-name="Path 19698" class="cls-1" d="M-2436.916,787.366h-6.984a2.381,2.381,0,0,1-2.379-2.378V778a2.381,2.381,0,0,1,2.379-2.378h6.984a2.381,2.381,0,0,1,2.378,2.378v6.984A2.381,2.381,0,0,1-2436.916,787.366Zm-6.984-9.511a.149.149,0,0,0-.149.148v6.984a.15.15,0,0,0,.149.149h6.984a.15.15,0,0,0,.149-.149V778a.149.149,0,0,0-.149-.148Z" transform="translate(-12.437 -41.423)"/>
      <path id="Path_19699" data-name="Path 19699" class="cls-1" d="M-2436.916,824.7h-6.984a2.381,2.381,0,0,1-2.379-2.378v-6.984a2.381,2.381,0,0,1,2.379-2.378h6.984a2.381,2.381,0,0,1,2.378,2.378v6.984A2.381,2.381,0,0,1-2436.916,824.7Zm-6.984-9.511a.15.15,0,0,0-.149.149v6.984a.149.149,0,0,0,.149.149h6.984a.15.15,0,0,0,.149-.149v-6.984a.15.15,0,0,0-.149-.149Z" transform="translate(-12.437 -62.111)"/>
      <path id="Path_19702" data-name="Path 19702" class="cls-1" d="M-2413.3,753.363a1.468,1.468,0,0,0-1.29,1.605,1.468,1.468,0,0,0,1.29,1.6h6.156a21,21,0,0,1,2.488-3.21Z" transform="translate(-29.996 -29.085)"/>
      <path id="Path_19703" data-name="Path 19703" class="cls-1" d="M-2413.3,739.863a1.468,1.468,0,0,0-1.29,1.605,1.468,1.468,0,0,0,1.29,1.605h11.9a20.829,20.829,0,0,1,7.177-3.21Z" transform="translate(-29.996 -21.604)"/>
      <path id="Path_19704" data-name="Path 19704" class="cls-1" d="M-2413.3,792.03a1.468,1.468,0,0,0-1.29,1.605,1.468,1.468,0,0,0,1.29,1.605h3.84a20.852,20.852,0,0,1-.7-3.21Z" transform="translate(-29.996 -50.513)"/>
      <path id="Path_19705" data-name="Path 19705" class="cls-1" d="M-2410.131,778.53h-3.172a1.468,1.468,0,0,0-1.29,1.605,1.468,1.468,0,0,0,1.29,1.605h2.939c0-.024,0-.048,0-.071A21.114,21.114,0,0,1-2410.131,778.53Z" transform="translate(-29.996 -43.032)"/>
      <path id="Path_19706" data-name="Path 19706" class="cls-1" d="M-2413.3,829.363a1.468,1.468,0,0,0-1.29,1.605,1.468,1.468,0,0,0,1.29,1.6h21.061a1.467,1.467,0,0,0,1.289-1.6c0-.087-.01-1.171-.02-1.255-2.107-.154-4.127.381-6.015-.35Z" transform="translate(-29.996 -71.201)"/>
      <path id="Path_19707" data-name="Path 19707" class="cls-1" d="M-2405.422,815.863h-7.881a1.468,1.468,0,0,0-1.29,1.605,1.468,1.468,0,0,0,1.29,1.605h11.269A21.075,21.075,0,0,1-2405.422,815.863Z" transform="translate(-29.996 -63.72)"/>
      <path id="Path_19708" data-name="Path 19708" class="cls-2" d="M-2414.6,718.2a20.945,20.945,0,0,1,3.657,1.25V704.533a3.53,3.53,0,0,0-1.144-2.6,3.955,3.955,0,0,0-2.715-1.058h-50.062a3.813,3.813,0,0,0-3.86,3.656v69.15a3.812,3.812,0,0,0,3.86,3.655h50.062a3.811,3.811,0,0,0,3.859-3.655V756.822s-2.4.945-3.657,1.25v15.746h-50.467V704.355h50.467Z" transform="translate(0)"/>
      <g id="Group_1285" data-name="Group 1285" transform="translate(-2440.559 717.699)">
        <path id="Path_19700" data-name="Path 19700" class="cls-2" d="M-2405.555,759.5a20.922,20.922,0,0,0,20.9,20.9,20.763,20.763,0,0,0,10.123-2.624l3.061,3.718-.208.181a2.87,2.87,0,0,0-.284,4.044l9.3,10.708a6.593,6.593,0,0,0,4.545,2.267,6.591,6.591,0,0,0,4.817-1.61,6.589,6.589,0,0,0,2.267-4.544c.012-.159.017-.318.017-.475a6.587,6.587,0,0,0-1.627-4.342l-9.3-10.708a2.87,2.87,0,0,0-3.746-.507l-2.957-3.591a20.8,20.8,0,0,0,4.89-13.415,20.922,20.922,0,0,0-20.9-20.9A20.921,20.921,0,0,0-2405.555,759.5Zm33.243,16.848a20.94,20.94,0,0,0,1.84-1.52l2.782,3.378-1.8,1.566Zm8.385,2.385,9.3,10.708a3.97,3.97,0,0,1,.973,2.913,3.984,3.984,0,0,1-1.371,2.748,4.017,4.017,0,0,1-5.66-.4l-9.3-10.708a.239.239,0,0,1-.06-.159c0-.006,0-.012,0-.018a.237.237,0,0,1,.083-.166l5.691-4.944a.236.236,0,0,1,.177-.059A.238.238,0,0,1-2363.927,778.738Zm-2.456-19.233a18.3,18.3,0,0,1-18.275,18.275,18.3,18.3,0,0,1-18.274-18.275,18.3,18.3,0,0,1,18.274-18.275A18.3,18.3,0,0,1-2366.383,759.5Z" transform="translate(2405.555 -738.607)"/>
        <path id="Path_19701" data-name="Path 19701" class="cls-2" d="M-2391.434,766.71a14.7,14.7,0,0,0,14.68,14.68,14.7,14.7,0,0,0,14.68-14.68,14.7,14.7,0,0,0-14.68-14.68A14.7,14.7,0,0,0-2391.434,766.71Zm26.737,0a12.071,12.071,0,0,1-12.057,12.057,12.071,12.071,0,0,1-12.057-12.057,12.071,12.071,0,0,1,12.057-12.057A12.071,12.071,0,0,1-2364.7,766.71Z" transform="translate(2397.73 -746.045)"/>
      </g>
      <g id="dollar" transform="translate(-2534.453 729.139)">
        <g id="Group_1287" data-name="Group 1287" transform="translate(109.589 0)">
          <path id="Path_19709" data-name="Path 19709" class="cls-1" d="M115.845,8.143V4.008a5.666,5.666,0,0,1,2.476,1.057.9.9,0,0,0,.49.153,1.02,1.02,0,0,0,1.029-1,.889.889,0,0,0-.263-.634,6.375,6.375,0,0,0-3.744-1.48V.718A.723.723,0,0,0,115.1,0h-.025a.736.736,0,0,0-.752.718V2.057c-2.692.188-4.522,1.821-4.522,3.995,0,2.667,2.309,3.407,4.522,3.995v4.7a6.265,6.265,0,0,1-3.17-1.375,1.007,1.007,0,0,0-.6-.211,1.03,1.03,0,0,0-.969,1.034.889.889,0,0,0,.263.634,7.115,7.115,0,0,0,4.486,1.774V17.9c0,.008,0,.016,0,.025a.735.735,0,0,0,.776.692.723.723,0,0,0,.73-.717V16.579c3.266-.211,4.582-2.162,4.582-4.23C120.427,9.577,118.058,8.731,115.845,8.143Zm-1.507-.376c-1.3-.376-2.321-.764-2.321-1.856s.921-1.88,2.321-1.986Zm1.507,7V10.493c1.352.376,2.4.881,2.393,2.115C118.238,13.5,117.616,14.558,115.845,14.77Z" transform="translate(-109.589 0)"/>
        </g>
      </g>
    </g>
  </g>
</svg>
