<svg xmlns="http://www.w3.org/2000/svg" width="68.508" height="68.508" viewBox="0 0 68.508 68.508">
  <defs>
    <style>
      .cls-1 {
        fill: #003173;
      }

      .cls-2 {
        fill: #1ba0e1;
      }
    </style>
  </defs>
  <g id="ql_pages_ic6" transform="translate(-1406.746 -2095.746)">
    <g id="Group_1383" data-name="Group 1383" transform="translate(-359 32)">
      <g id="analytics_2_" data-name="analytics (2)" transform="translate(1765.746 2063.746)">
        <g id="Group_1241" data-name="Group 1241">
          <g id="Group_1240" data-name="Group 1240">
            <path id="Path_19619" data-name="Path 19619" class="cls-1" d="M63.836,58.941a4.677,4.677,0,0,0,4.672-4.672V6.69A6.7,6.7,0,0,0,61.818,0H6.69A6.7,6.7,0,0,0,0,6.69V54.269a4.677,4.677,0,0,0,4.672,4.672H6.155v6.891H1.338a1.338,1.338,0,1,0,0,2.676H67.17a1.338,1.338,0,1,0,0-2.676H62.353V58.941ZM2.676,6.69A4.019,4.019,0,0,1,6.69,2.676H61.818A4.019,4.019,0,0,1,65.832,6.69V9.634H2.81c-.045,0-.09,0-.134.007ZM14.719,65.832H8.831V53.79h5.887Zm14.986,0H23.817V38.995H29.7Zm14.986,0H38.8V50.311h5.887ZM61.015,34.321H52.451a1.338,1.338,0,0,0-1.338,1.338v6.757a1.338,1.338,0,1,0,2.676,0V37h5.887V65.832H53.79V41.194a1.338,1.338,0,0,0-2.676,0V65.832H47.367V48.973a1.338,1.338,0,0,0-1.338-1.338H37.465a1.338,1.338,0,0,0-1.338,1.338V65.832H32.381V37.657a1.338,1.338,0,0,0-1.338-1.338H22.479a1.338,1.338,0,0,0-1.338,1.338V65.832H17.395V52.451a1.338,1.338,0,0,0-1.338-1.338H7.493a1.338,1.338,0,0,0-1.338,1.338v3.814H4.672a2,2,0,0,1-2-2V12.3c.044,0,.089.007.134.007H65.832V54.269a2,2,0,0,1-2,2H62.353V35.659A1.338,1.338,0,0,0,61.015,34.321Z"/>
          </g>
        </g>
        <g id="Group_1243" data-name="Group 1243" transform="translate(28.375 4.817)">
          <g id="Group_1242" data-name="Group 1242">
            <path id="Path_19620" data-name="Path 19620" class="cls-1" d="M243.634,36H213.4a1.338,1.338,0,0,0,0,2.676h30.231a1.338,1.338,0,0,0,0-2.676Z" transform="translate(-212.065 -36)"/>
          </g>
        </g>
        <g id="Group_1245" data-name="Group 1245" transform="translate(12.578 4.817)">
          <g id="Group_1244" data-name="Group 1244">
            <path id="Path_19621" data-name="Path 19621" class="cls-1" d="M96.284,36.392a1.337,1.337,0,1,0,.392.946A1.348,1.348,0,0,0,96.284,36.392Z" transform="translate(-94 -36)"/>
          </g>
        </g>
        <g id="Group_1247" data-name="Group 1247" transform="translate(7.225 4.817)">
          <g id="Group_1246" data-name="Group 1246">
            <path id="Path_19622" data-name="Path 19622" class="cls-1" d="M56.284,36.392a1.337,1.337,0,1,0,.392.946A1.348,1.348,0,0,0,56.284,36.392Z" transform="translate(-54 -36)"/>
          </g>
        </g>
        <g id="Group_1249" data-name="Group 1249" transform="translate(17.93 4.817)">
          <g id="Group_1248" data-name="Group 1248">
            <path id="Path_19623" data-name="Path 19623" class="cls-1" d="M136.284,36.392a1.337,1.337,0,1,0,.392.946A1.346,1.346,0,0,0,136.284,36.392Z" transform="translate(-134 -36)"/>
          </g>
        </g>
        <g id="Group_1253" data-name="Group 1253" transform="translate(6.869 18.189)">
          <g id="Group_1252" data-name="Group 1252">
            <path id="Path_19625" data-name="Path 19625" class="cls-2" d="M101.2,135.939a4.813,4.813,0,0,0-3.9,7.643l-8.888,8.888a4.805,4.805,0,0,0-4.442-.108l-9.281-9.281a4.817,4.817,0,1,0-8.313.207l-7.9,7.9a4.821,4.821,0,1,0,1.892,1.892l8-8a4.806,4.806,0,0,0,4.433-.113l9.19,9.19a4.817,4.817,0,1,0,8.318.2l9.126-9.126a4.816,4.816,0,1,0,1.767-9.3ZM56.153,157.548a2.141,2.141,0,1,1,2.141-2.141A2.143,2.143,0,0,1,56.153,157.548ZM70.475,142.9a2.141,2.141,0,1,1,2.141-2.141A2.143,2.143,0,0,1,70.475,142.9ZM86.09,158.828a2.141,2.141,0,1,1,2.141-2.141A2.143,2.143,0,0,1,86.09,158.828ZM101.2,142.9a2.141,2.141,0,1,1,2.141-2.141A2.143,2.143,0,0,1,101.2,142.9Z" transform="translate(-51.336 -135.939)"/>
          </g>
        </g>
        <g id="Group_1255" data-name="Group 1255" transform="translate(17.563 16.862)">
          <g id="Group_1254" data-name="Group 1254">
            <path id="Path_19626" data-name="Path 19626" class="cls-2" d="M133.544,126.412a1.337,1.337,0,1,0,.392.946A1.351,1.351,0,0,0,133.544,126.412Z" transform="translate(-131.26 -126.02)"/>
          </g>
        </g>
        <g id="Group_1257" data-name="Group 1257" transform="translate(6.155 16.862)">
          <g id="Group_1256" data-name="Group 1256">
            <path id="Path_19627" data-name="Path 19627" class="cls-2" d="M53.761,126.021H47.338a1.338,1.338,0,0,0,0,2.676h6.423a1.338,1.338,0,0,0,0-2.676Z" transform="translate(-46 -126.021)"/>
          </g>
        </g>
        <g id="Group_1259" data-name="Group 1259" transform="translate(6.155 23.285)">
          <g id="Group_1258" data-name="Group 1258">
            <path id="Path_19628" data-name="Path 19628" class="cls-2" d="M53.761,174.021H47.338a1.338,1.338,0,1,0,0,2.676h6.423a1.338,1.338,0,1,0,0-2.676Z" transform="translate(-46 -174.021)"/>
          </g>
        </g>
      </g>
    </g>
  </g>
</svg>
