<svg xmlns="http://www.w3.org/2000/svg" width="45" height="45" viewBox="0 0 45 45">
  <defs>
    <style>
      .cls-1 {
        fill: #1ba0e1;
        stroke: #fff;
      }

      .cls-2 {
        fill: #fff;
      }

      .cls-3 {
        stroke: none;
      }

      .cls-4 {
        fill: none;
      }
    </style>
  </defs>
  <g id="qldm_hv9" transform="translate(-1894 -1929)">
    <g id="Group_1327" data-name="Group 1327" transform="translate(1882 1640)">
      <g id="Component_21_56" data-name="Component 21 – 56" transform="translate(12 289)">
        <g id="Rectangle_436" data-name="Rectangle 436" class="cls-1">
          <rect class="cls-3" width="45" height="45" rx="8"/>
          <rect class="cls-4" x="0.5" y="0.5" width="44" height="44" rx="7.5"/>
        </g>
      </g>
    </g>
    <g id="Group_1329" data-name="Group 1329" transform="translate(1733.786 1334.28)">
      <g id="Group_1263" data-name="Group 1263" transform="translate(175.603 602.719)">
        <path id="Path_19650" data-name="Path 19650" class="cls-2" d="M-1795.173,26.022a1.064,1.064,0,0,0-.754-.311h-13.026a1.084,1.084,0,0,0-1.069,1.069V45.841a1.084,1.084,0,0,0,1.069,1.069h13.026a1.084,1.084,0,0,0,1.07-1.069V26.78A1.06,1.06,0,0,0-1795.173,26.022Zm-.766.771V45.816h-13V26.792Z" transform="translate(1810.022 -25.711)"/>
        <g id="Group_1264" data-name="Group 1264" transform="translate(2.375 2.946)">
          <path id="Path_19651" data-name="Path 19651" class="cls-2" d="M-1763.754,57.4h-7.226a.44.44,0,0,1-.442-.442h0a.44.44,0,0,1,.442-.442h7.226a.441.441,0,0,1,.442.442h0A.44.44,0,0,1-1763.754,57.4Z" transform="translate(1773.769 -54.852)"/>
          <path id="Path_19652" data-name="Path 19652" class="cls-2" d="M-1789.4,57.4h-.676a.441.441,0,0,1-.442-.442h0a.441.441,0,0,1,.442-.442h.676a.441.441,0,0,1,.443.442h0A.441.441,0,0,1-1789.4,57.4Z" transform="translate(1790.522 -54.852)"/>
          <path id="Path_19653" data-name="Path 19653" class="cls-2" d="M-1763.754,43.9h-7.226a.44.44,0,0,1-.442-.442h0a.44.44,0,0,1,.442-.442h7.226a.441.441,0,0,1,.442.442h0A.441.441,0,0,1-1763.754,43.9Z" transform="translate(1773.769 -43.011)"/>
          <path id="Path_19654" data-name="Path 19654" class="cls-2" d="M-1789.4,43.9h-.676a.441.441,0,0,1-.442-.442h0a.441.441,0,0,1,.442-.442h.676a.441.441,0,0,1,.443.442h0A.441.441,0,0,1-1789.4,43.9Z" transform="translate(1790.522 -43.011)"/>
        </g>
        <g id="Group_1265" data-name="Group 1265" transform="translate(2.375 8.022)">
          <path id="Path_19655" data-name="Path 19655" class="cls-2" d="M-1788.97,88.943h-3.822a.43.43,0,0,1-.43-.43v-.037a4.159,4.159,0,0,1,4.154-4.154h.1a.43.43,0,0,1,.43.43v3.761A.43.43,0,0,1-1788.97,88.943Zm-3.369-.86h2.938V85.2A3.3,3.3,0,0,0-1792.338,88.083Z" transform="translate(1793.222 -84.322)"/>
          <path id="Path_19656" data-name="Path 19656" class="cls-2" d="M-1780.6,100.164a4.645,4.645,0,0,1-4.62-4.552.429.429,0,0,1,.123-.309.431.431,0,0,1,.307-.128h3.711V91.352a.43.43,0,0,1,.43-.43h.049a4.626,4.626,0,0,1,4.621,4.621A4.626,4.626,0,0,1-1780.6,100.164Zm-3.728-4.129A3.783,3.783,0,0,0-1780.6,99.3a3.765,3.765,0,0,0,3.761-3.761,3.766,3.766,0,0,0-3.38-3.741v3.8a.43.43,0,0,1-.43.43Z" transform="translate(1786.205 -90.111)"/>
        </g>
      </g>
      <g id="Group_1307" data-name="Group 1307" transform="translate(168.218 613.218)">
        <path id="Path_19710" data-name="Path 19710" class="cls-2" d="M-1844.279,127.6v-12.77a1.919,1.919,0,0,0-1.916-1.916h-3.341V114h3.341a.825.825,0,0,1,.824.825V127.6h-23.3V114.827a.826.826,0,0,1,.825-.825h3.57v-1.092h-3.57a1.919,1.919,0,0,0-1.916,1.916V127.7l-2.062.008v.544a3.72,3.72,0,0,0,3.709,3.723h22a3.726,3.726,0,0,0,3.721-3.723v-.658Zm-1.839,3.283h-22a2.626,2.626,0,0,1-2.561-2.088l27.15-.106A2.634,2.634,0,0,1-1846.117,130.88Z" transform="translate(1871.822 -112.911)"/>
      </g>
    </g>
  </g>
</svg>
