<svg xmlns="http://www.w3.org/2000/svg" width="45" height="45" viewBox="0 0 45 45">
  <defs>
    <style>
      .cls-1 {
        fill: #1ba0e1;
        stroke: #fff;
      }

      .cls-2 {
        fill: #fff;
      }

      .cls-3 {
        stroke: none;
      }

      .cls-4 {
        fill: none;
      }
    </style>
  </defs>
  <g id="qldm_hv1" transform="translate(-1894 -1475)">
    <g id="Component_21_48" data-name="Component 21 – 48" transform="translate(1894 1475)">
      <g id="Rectangle_436" data-name="Rectangle 436" class="cls-1">
        <rect class="cls-3" width="45" height="45" rx="8"/>
        <rect class="cls-4" x="0.5" y="0.5" width="44" height="44" rx="7.5"/>
      </g>
    </g>
    <g id="Group_1332" data-name="Group 1332" transform="translate(4373.155 784.416)">
      <path id="Path_19697" data-name="Path 19697" class="cls-2" d="M-2443.271,740.731h-2.243a.765.765,0,0,1-.764-.764v-2.244a.765.765,0,0,1,.764-.764h2.243a.765.765,0,0,1,.764.764v2.244A.765.765,0,0,1-2443.271,740.731Zm-2.243-3.055a.048.048,0,0,0-.048.048v2.244a.048.048,0,0,0,.048.048h2.243a.048.048,0,0,0,.048-.048v-2.244a.048.048,0,0,0-.048-.048Z" transform="translate(-19.229 -30.914)"/>
      <path id="Path_19698" data-name="Path 19698" class="cls-2" d="M-2443.271,779.4h-2.243a.765.765,0,0,1-.764-.764V776.39a.765.765,0,0,1,.764-.764h2.243a.765.765,0,0,1,.764.764v2.244A.765.765,0,0,1-2443.271,779.4Zm-2.243-3.055a.048.048,0,0,0-.048.048v2.244a.048.048,0,0,0,.048.048h2.243a.048.048,0,0,0,.048-.048V776.39a.048.048,0,0,0-.048-.048Z" transform="translate(-19.229 -64.043)"/>
      <path id="Path_19699" data-name="Path 19699" class="cls-2" d="M-2443.271,816.73h-2.243a.765.765,0,0,1-.764-.764v-2.244a.765.765,0,0,1,.764-.764h2.243a.765.765,0,0,1,.764.764v2.244A.765.765,0,0,1-2443.271,816.73Zm-2.243-3.055a.048.048,0,0,0-.048.048v2.244a.048.048,0,0,0,.048.048h2.243a.048.048,0,0,0,.048-.048v-2.244a.048.048,0,0,0-.048-.048Z" transform="translate(-19.229 -96.029)"/>
      <path id="Path_19702" data-name="Path 19702" class="cls-2" d="M-2414.179,753.363a.472.472,0,0,0-.415.516.471.471,0,0,0,.415.516h1.978a6.745,6.745,0,0,1,.8-1.031Z" transform="translate(-46.376 -44.969)"/>
      <path id="Path_19703" data-name="Path 19703" class="cls-2" d="M-2414.179,739.863a.472.472,0,0,0-.415.516.471.471,0,0,0,.415.516h3.821a6.693,6.693,0,0,1,2.305-1.031Z" transform="translate(-46.376 -33.402)"/>
      <path id="Path_19704" data-name="Path 19704" class="cls-2" d="M-2414.179,792.03a.471.471,0,0,0-.415.516.471.471,0,0,0,.415.516h1.233a6.733,6.733,0,0,1-.225-1.031Z" transform="translate(-46.376 -78.098)"/>
      <path id="Path_19705" data-name="Path 19705" class="cls-2" d="M-2413.16,778.53h-1.019a.471.471,0,0,0-.415.516.471.471,0,0,0,.415.516h.944c0-.008,0-.015,0-.023A6.8,6.8,0,0,1-2413.16,778.53Z" transform="translate(-46.376 -66.531)"/>
      <path id="Path_19706" data-name="Path 19706" class="cls-2" d="M-2414.179,829.363a.472.472,0,0,0-.415.516.472.472,0,0,0,.415.516h6.765a.471.471,0,0,0,.414-.516c0-.028,0-.376-.007-.4a6.629,6.629,0,0,1-1.932-.113Z" transform="translate(-46.376 -110.084)"/>
      <path id="Path_19707" data-name="Path 19707" class="cls-2" d="M-2411.647,815.863h-2.531a.472.472,0,0,0-.415.516.472.472,0,0,0,.415.516h3.62A6.775,6.775,0,0,1-2411.647,815.863Z" transform="translate(-46.376 -98.517)"/>
      <path id="Path_19708" data-name="Path 19708" class="cls-2" d="M-2451.335,706.443a6.732,6.732,0,0,1,1.175.4v-4.792a1.134,1.134,0,0,0-.368-.835,1.27,1.27,0,0,0-.872-.34h-16.082a1.225,1.225,0,0,0-1.24,1.175v22.214a1.225,1.225,0,0,0,1.24,1.174h16.082a1.224,1.224,0,0,0,1.24-1.174v-5.417s-.77.3-1.175.4v5.058h-16.212V701.994h16.212Z" transform="translate(0)"/>
      <g id="Group_1285" data-name="Group 1285" transform="translate(-2459.675 706.281)">
        <path id="Path_19700" data-name="Path 19700" class="cls-2" d="M-2405.555,745.32a6.721,6.721,0,0,0,6.713,6.714,6.67,6.67,0,0,0,3.252-.843l.983,1.194-.067.058a.922.922,0,0,0-.091,1.3l2.988,3.44a2.118,2.118,0,0,0,1.46.728,2.117,2.117,0,0,0,1.547-.517,2.118,2.118,0,0,0,.728-1.46c0-.051.006-.1.006-.153a2.116,2.116,0,0,0-.523-1.395l-2.989-3.44a.922.922,0,0,0-1.2-.163l-.95-1.154a6.681,6.681,0,0,0,1.571-4.309,6.721,6.721,0,0,0-6.713-6.713A6.721,6.721,0,0,0-2405.555,745.32Zm10.679,5.412a6.7,6.7,0,0,0,.591-.488l.894,1.085-.579.5Zm2.694.766,2.989,3.44a1.276,1.276,0,0,1,.313.936,1.28,1.28,0,0,1-.44.883,1.29,1.29,0,0,1-1.818-.128l-2.988-3.44a.076.076,0,0,1-.02-.051.043.043,0,0,1,0-.006.076.076,0,0,1,.027-.053l1.828-1.588a.076.076,0,0,1,.057-.019A.077.077,0,0,1-2392.182,751.5Zm-.789-6.179a5.877,5.877,0,0,1-5.871,5.871,5.877,5.877,0,0,1-5.87-5.871,5.877,5.877,0,0,1,5.87-5.871A5.877,5.877,0,0,1-2392.971,745.32Z" transform="translate(2405.555 -738.607)"/>
        <path id="Path_19701" data-name="Path 19701" class="cls-2" d="M-2391.434,756.746a4.721,4.721,0,0,0,4.716,4.716,4.721,4.721,0,0,0,4.716-4.716,4.721,4.721,0,0,0-4.716-4.716A4.721,4.721,0,0,0-2391.434,756.746Zm8.589,0a3.878,3.878,0,0,1-3.873,3.873,3.878,3.878,0,0,1-3.873-3.873,3.878,3.878,0,0,1,3.873-3.873A3.878,3.878,0,0,1-2382.845,756.746Z" transform="translate(2393.457 -750.108)"/>
      </g>
      <g id="dollar" transform="translate(-2454.633 709.956)">
        <g id="Group_1287" data-name="Group 1287" transform="translate(0 0)">
          <path id="Path_19709" data-name="Path 19709" class="cls-2" d="M111.6,2.616V1.287a1.82,1.82,0,0,1,.8.34.288.288,0,0,0,.158.049.328.328,0,0,0,.33-.321.286.286,0,0,0-.085-.2,2.048,2.048,0,0,0-1.2-.476V.23A.232.232,0,0,0,111.36,0h-.008a.236.236,0,0,0-.242.231v.43a1.383,1.383,0,0,0-1.453,1.283c0,.857.742,1.095,1.453,1.283v1.51a2.012,2.012,0,0,1-1.018-.442.324.324,0,0,0-.192-.068.331.331,0,0,0-.311.332.285.285,0,0,0,.085.2,2.286,2.286,0,0,0,1.441.57v.415s0,.005,0,.008a.236.236,0,0,0,.249.222.232.232,0,0,0,.234-.23V5.326c1.049-.068,1.472-.694,1.472-1.359C113.07,3.076,112.309,2.8,111.6,2.616Zm-.484-.121c-.419-.121-.746-.245-.746-.6s.3-.6.746-.638Zm.484,2.249V3.371c.434.121.772.283.769.679C112.367,4.337,112.167,4.677,111.6,4.744Z" transform="translate(-109.589 0)"/>
        </g>
      </g>
    </g>
  </g>
</svg>
