<svg xmlns="http://www.w3.org/2000/svg" width="45" height="45" viewBox="0 0 45 45">
  <defs>
    <style>
      .cls-1 {
        fill: rgba(255,255,255,0.16);
      }

      .cls-2 {
        fill: #fff;
      }
    </style>
  </defs>
  <g id="qldm_ic8" transform="translate(-12 -521)">
    <g id="Group_884" data-name="Group 884" transform="translate(0 232)">
      <g id="Component_21_46" data-name="Component 21 – 46" transform="translate(12 289)">
        <rect id="Rectangle_436" data-name="Rectangle 436" class="cls-1" width="45" height="45" rx="8"/>
      </g>
    </g>
    <g id="Group_1306" data-name="Group 1306" transform="translate(1758.059 1039.958)">
      <path id="Path_19589" data-name="Path 19589" class="cls-2" d="M-1730.785-500.818c-1.145,0-2.219,0-3.293,0a1.775,1.775,0,0,1-1.947-1.923c-.007-1.71-.014-3.421,0-5.131a3.118,3.118,0,0,1,3.242-3.23q9.866-.012,19.732,0a1.769,1.769,0,0,1,1.956,1.974q.008,12.218,0,24.435a1.745,1.745,0,0,1-1.856,1.9c-5.335.012-10.67.028-16.005-.029a2.1,2.1,0,0,0-1.44.581,2.053,2.053,0,0,1-2.4.233,1.916,1.916,0,0,1-1.025-2.1,3.069,3.069,0,0,1,.788-1.382c.581-.592,1.286-1.06,1.918-1.605a.85.85,0,0,0,.31-.535C-1730.781-492-1730.785-496.353-1730.785-500.818Zm2.231,17.085c.247.02.341.034.434.034q7.547,0,15.094,0c.752,0,1.04-.315,1.041-1.11q0-12.069,0-24.139c0-1.024-.25-1.273-1.256-1.273q-8.433,0-16.867,0h-.683a3.752,3.752,0,0,1,.9,2.808c-.016,6.192-.009,12.385-.01,18.577v.743c.527-.438.968-.63,1.495-.3.073.047.268-.028.365-.1.322-.242.625-.509.927-.758a6.831,6.831,0,0,1,2.245-9,6.8,6.8,0,0,1,8.74,1.138,6.785,6.785,0,0,1,.29,8.757,6.593,6.593,0,0,1-3.972,2.445,6.812,6.812,0,0,1-5.683-1.4c-.11.078-.2.129-.272.193-.433.375-1.054.614-.825,1.42.05.177-.23.5-.427.683C-1727.465-484.591-1727.954-484.224-1728.554-483.733Zm7.434-14.707a5.9,5.9,0,0,0-5.943,5.922,5.921,5.921,0,0,0,5.886,5.864,5.917,5.917,0,0,0,5.912-5.9A5.9,5.9,0,0,0-1721.12-498.44Zm-9.667-3.266c0-2.115,0-4.148,0-6.181a2.2,2.2,0,0,0-2.088-2.332,2.186,2.186,0,0,0-2.235,2.132c-.065,1.83-.035,3.664-.018,5.5a.817.817,0,0,0,.839.876C-1733.152-501.687-1732.015-501.707-1730.786-501.707Zm1.836,14.05c-1.2.963-2.343,1.872-3.473,2.8a1.2,1.2,0,0,0-.281,1.762,1.207,1.207,0,0,0,1.827.09c.9-.723,1.8-1.456,2.7-2.186.244-.2.484-.4.737-.612Zm1.678.619,1.107-.909-.449-.535-1.1.907Z" transform="translate(0 0)"/>
      <path id="Path_19590" data-name="Path 19590" class="cls-2" d="M-1647.557-397.136a4.616,4.616,0,0,1,4.619,4.615,4.633,4.633,0,0,1-4.666,4.64,4.624,4.624,0,0,1-4.583-4.594A4.6,4.6,0,0,1-1647.557-397.136Zm.883,8.262a3.717,3.717,0,0,0,2.692-2.614,3.6,3.6,0,0,0-.732-3.419c-.774.831-1.509,1.612-2.229,2.405a.55.55,0,0,0-.109.387C-1646.939-391.067-1646.81-390.02-1646.674-388.874Zm1.289-6.636c-2.016-1.4-5.015-.549-5.492,1.5.948.3,1.9.6,2.851.882a.581.581,0,0,0,.486-.087C-1646.818-393.956-1646.121-394.72-1645.385-395.511Zm-5.8,2.349c-.57,2.181,1.631,4.755,3.6,4.269-.112-.965-.21-1.935-.351-2.9a.678.678,0,0,0-.363-.461C-1649.238-392.576-1650.19-392.854-1651.181-393.162Z" transform="translate(-73.598 -100.04)"/>
      <rect id="Rectangle_804" data-name="Rectangle 804" class="cls-2" width="13.447" height="0.856" rx="0.428" transform="translate(-1727.84 -507.427)"/>
      <rect id="Rectangle_805" data-name="Rectangle 805" class="cls-2" width="13.447" height="0.856" rx="0.428" transform="translate(-1727.84 -504.738)"/>
      <rect id="Rectangle_806" data-name="Rectangle 806" class="cls-2" width="6.723" height="0.856" rx="0.428" transform="translate(-1727.84 -502.049)"/>
    </g>
  </g>
</svg>
