<svg xmlns="http://www.w3.org/2000/svg" width="45" height="45" viewBox="0 0 45 45">
  <defs>
    <style>
      .cls-1 {
        fill: rgba(255,255,255,0.16);
      }

      .cls-2 {
        fill: #fff;
      }
    </style>
  </defs>
  <g id="qldm_ic2" transform="translate(-12 -180)">
    <g id="Group_1345" data-name="Group 1345">
      <g id="Component_21_40" data-name="Component 21 – 40" transform="translate(12 180)">
        <rect id="Rectangle_436" data-name="Rectangle 436" class="cls-1" width="45" height="45" rx="8"/>
      </g>
      <g id="Group_1301" data-name="Group 1301" transform="translate(3812.452 819.156)">
        <path id="Path_19591" data-name="Path 19591" class="cls-2" d="M-3779.486-544.229c-.035-.692-.067-1.312-.1-1.98-.165-.01-.329-.028-.494-.029q-4.658,0-9.316-.006c-1.192,0-1.63-.448-1.63-1.655q0-2.073,0-4.147c0-1.041.485-1.521,1.535-1.522,4.734,0,9.468,0,14.2-.01a2.717,2.717,0,0,0,1.034-.214,8.826,8.826,0,0,1,9.72,1.851,8.793,8.793,0,0,1,1.867,9.76,8.987,8.987,0,0,1-8.418,5.309c-5.661-.061-11.323-.01-16.984-.006-.53,0-1.061.014-1.59-.006a1.3,1.3,0,0,1-1.363-1.416q-.013-2.244,0-4.488a1.308,1.308,0,0,1,1.452-1.435q4.715-.01,9.43,0Zm.813-1.473a7.935,7.935,0,0,0,7.835,7.938,7.932,7.932,0,0,0,8.012-7.93,7.94,7.94,0,0,0-7.949-7.941A7.937,7.937,0,0,0-3778.673-545.7Zm3.884,7.937c.238.017-.132-.17-.174-.193a8.74,8.74,0,0,1-4.168-5.036c-.1-.3-.261-.352-.541-.352q-4.912.012-9.826,0c-.459,0-.649.171-.644.636q.021,2.158,0,4.317c0,.426.158.631.6.631C-3784.661-537.766-3779.777-537.765-3774.789-537.765Zm-1.419-14.855c.066-.128-.177-.068-.226-.068q-6.553-.005-13.107-.009c-.435,0-.6.2-.6.625.011,1.381,0,2.761,0,4.142,0,.751.063.818.8.818q4.653,0,9.306,0h.567A9.027,9.027,0,0,1-3776.208-552.62Z" transform="translate(0 -65.721)"/>
        <path id="Path_19592" data-name="Path 19592" class="cls-2" d="M-3780.683-621.308q-4.346,0-8.692,0c-1.184,0-1.635-.458-1.635-1.656,0-1.4,0-2.8,0-4.2a1.324,1.324,0,0,1,1.469-1.484q8.891-.01,17.782,0a1.312,1.312,0,0,1,1.456,1.491q.01,2.187,0,4.374a1.3,1.3,0,0,1-1.461,1.478Q-3776.224-621.3-3780.683-621.308Zm.01-.883c2.934,0,5.868-.008,8.8.007.516,0,.714-.189.707-.7q-.027-2.1,0-4.2c.006-.516-.21-.7-.717-.694q-8.774.015-17.547,0c-.516,0-.706.194-.7.707.021,1.382,0,2.764.008,4.146,0,.676.065.736.76.737Q-3785.018-622.188-3780.673-622.191Z" transform="translate(-0.018 0)"/>
        <path id="Path_19593" data-name="Path 19593" class="cls-2" d="M-3642.4-519.382c0,1.248-.01,2.5.005,3.745.006.48-.179.683-.669.681q-3.717-.018-7.434,0c-.491,0-.668-.2-.667-.679q.015-4.909,0-9.818c0-.486.183-.679.67-.674,1.7.015,3.405,0,5.107.021a1.126,1.126,0,0,1,.688.286q1.036.968,2.007,2a1.133,1.133,0,0,1,.278.689c.027,1.248.013,2.5.013,3.745Zm-7.839-5.822v9.309h6.9v-7.023c-.578,0-1.106-.013-1.634,0-.466.014-.648-.2-.634-.652.018-.542,0-1.085,0-1.638Z" transform="translate(-123.972 -90.878)"/>
        <path id="Path_19594" data-name="Path 19594" class="cls-2" d="M-3651.835-608.322a1.518,1.518,0,0,1-1.56,1.524,1.537,1.537,0,0,1-1.519-1.516,1.561,1.561,0,0,1,1.541-1.563A1.537,1.537,0,0,1-3651.835-608.322Z" transform="translate(-120.651 -16.647)"/>
        <rect id="Rectangle_807" data-name="Rectangle 807" class="cls-2" width="5.114" height="0.909" rx="0.455" transform="translate(-3773.301 -612.56)"/>
        <rect id="Rectangle_808" data-name="Rectangle 808" class="cls-2" width="5.114" height="0.909" rx="0.455" transform="translate(-3773.301 -610.628)"/>
        <rect id="Rectangle_809" data-name="Rectangle 809" class="cls-2" width="5.114" height="0.909" rx="0.455" transform="translate(-3773.301 -608.81)"/>
        <path id="Path_19595" data-name="Path 19595" class="cls-2" d="M-3764.509-607.977h-6.864a.664.664,0,0,1-.663-.663v-2.2a.664.664,0,0,1,.663-.663h6.864a.664.664,0,0,1,.663.663v2.2A.664.664,0,0,1-3764.509-607.977Zm-6.845-.682h6.826v-2.159h-6.826Z" transform="translate(-16.837 -15.208)"/>
        <path id="Path_19596" data-name="Path 19596" class="cls-2" d="M-3764.509-525.977h-6.864a.664.664,0,0,1-.663-.663v-2.2a.664.664,0,0,1,.663-.663h6.864a.664.664,0,0,1,.663.663v2.2A.664.664,0,0,1-3764.509-525.977Zm-6.845-.682h6.826v-2.159h-6.826Z" transform="translate(-16.837 -87.89)"/>
        <path id="Path_19597" data-name="Path 19597" class="cls-2" d="M-3764.509-443.977h-6.864a.664.664,0,0,1-.663-.663v-2.2a.664.664,0,0,1,.663-.663h6.864a.664.664,0,0,1,.663.663v2.2A.664.664,0,0,1-3764.509-443.977Zm-6.845-.682h6.826v-2.159h-6.826Z" transform="translate(-16.837 -160.572)"/>
      </g>
    </g>
  </g>
</svg>
