<svg xmlns="http://www.w3.org/2000/svg" width="45" height="45" viewBox="0 0 45 45">
  <defs>
    <style>
      .cls-1 {
        fill: rgba(255,255,255,0.16);
      }

      .cls-2 {
        fill: #fff;
      }
    </style>
  </defs>
  <g id="qldm_ic5" transform="translate(-12 -347)">
    <g id="Group_881" data-name="Group 881" transform="translate(0 58)">
      <g id="Component_21_43" data-name="Component 21 – 43" transform="translate(12 289)">
        <rect id="Rectangle_436" data-name="Rectangle 436" class="cls-1" width="45" height="45" rx="8"/>
      </g>
    </g>
    <g id="Group_1304" data-name="Group 1304" transform="translate(-163.36 -62.297)">
      <g id="Group_1217" data-name="Group 1217" transform="translate(183.19 443.121)">
        <g id="Group_1216" data-name="Group 1216">
          <path id="Path_19607" data-name="Path 19607" class="cls-2" d="M28.768,490.667H.612a.612.612,0,1,0,0,1.224H28.768a.612.612,0,1,0,0-1.224Z" transform="translate(0 -490.667)"/>
        </g>
      </g>
      <g id="Group_1219" data-name="Group 1219" transform="translate(184.415 435.776)">
        <g id="Group_1218" data-name="Group 1218">
          <path id="Path_19608" data-name="Path 19608" class="cls-2" d="M25.618,362.667H21.945a.612.612,0,0,0-.612.612v7.345a.612.612,0,0,0,.612.612h3.672a.612.612,0,0,0,.612-.612v-7.345A.612.612,0,0,0,25.618,362.667Zm-.612,7.345H22.557v-6.121h2.448v6.121Z" transform="translate(-21.333 -362.667)"/>
        </g>
      </g>
      <g id="Group_1221" data-name="Group 1221" transform="translate(191.759 429.655)">
        <g id="Group_1220" data-name="Group 1220">
          <path id="Path_19609" data-name="Path 19609" class="cls-2" d="M153.618,256h-3.672a.612.612,0,0,0-.612.612v13.466a.612.612,0,0,0,.612.612h3.672a.612.612,0,0,0,.612-.612V256.612A.612.612,0,0,0,153.618,256Zm-.612,13.466h-2.448V257.224h2.448Z" transform="translate(-149.333 -256)"/>
        </g>
      </g>
      <g id="Group_1223" data-name="Group 1223" transform="translate(199.104 432.104)">
        <g id="Group_1222" data-name="Group 1222">
          <path id="Path_19610" data-name="Path 19610" class="cls-2" d="M281.618,298.667h-3.672a.612.612,0,0,0-.612.612V310.3a.612.612,0,0,0,.612.612h3.672a.612.612,0,0,0,.612-.612V299.279A.612.612,0,0,0,281.618,298.667Zm-.612,11.017h-2.448v-9.793h2.448Z" transform="translate(-277.333 -298.667)"/>
        </g>
      </g>
      <g id="Group_1225" data-name="Group 1225" transform="translate(206.449 424.759)">
        <g id="Group_1224" data-name="Group 1224">
          <path id="Path_19611" data-name="Path 19611" class="cls-2" d="M409.618,170.667h-3.672a.612.612,0,0,0-.612.612v18.362a.612.612,0,0,0,.612.612h3.672a.612.612,0,0,0,.612-.612V171.279A.612.612,0,0,0,409.618,170.667Zm-.612,18.362h-2.448V171.891h2.448Z" transform="translate(-405.333 -170.667)"/>
        </g>
      </g>
      <g id="Group_1253" data-name="Group 1253" transform="translate(183.708 418.944)">
        <g id="Group_1252" data-name="Group 1252">
          <path id="Path_19625" data-name="Path 19625" class="cls-2" d="M73.714,135.939a2.16,2.16,0,0,0-1.749,3.43l-3.989,3.989a2.156,2.156,0,0,0-1.994-.049l-4.165-4.165a2.162,2.162,0,1,0-3.73.093l-3.546,3.546a2.163,2.163,0,1,0,.849.849l3.588-3.588a2.157,2.157,0,0,0,1.99-.051l4.124,4.124a2.162,2.162,0,1,0,3.733.089l4.1-4.1a2.161,2.161,0,1,0,.793-4.172Zm-20.216,9.7a.961.961,0,1,1,.961-.961A.962.962,0,0,1,53.5,145.636Zm6.427-6.575a.961.961,0,1,1,.961-.961A.962.962,0,0,1,59.925,139.061Zm7.008,7.149a.961.961,0,1,1,.961-.961A.962.962,0,0,1,66.933,146.211Zm6.781-7.149a.961.961,0,1,1,.961-.961A.962.962,0,0,1,73.714,139.061Z" transform="translate(-51.336 -135.939)"/>
        </g>
      </g>
    </g>
  </g>
</svg>
