<svg xmlns="http://www.w3.org/2000/svg" width="19.885" height="19.885" viewBox="0 0 19.885 19.885">
  <defs>
    <style>
      .cls-1 {
        fill: #1ba0e1;
        stroke: #1ba0e1;
        stroke-width: 0.3px;
      }
    </style>
  </defs>
  <g id="settings_4_" data-name="settings (4)" transform="translate(0.15 0.15)">
    <g id="Group_848" data-name="Group 848" transform="translate(0 6.528)">
      <g id="Group_847" data-name="Group 847">
        <path id="Path_19391" data-name="Path 19391" class="cls-1" d="M12.078,164.9h-.359a.321.321,0,0,1-.3-.211c-.04-.1-.083-.207-.129-.308a.322.322,0,0,1,.065-.364l.256-.256a.982.982,0,0,0,0-1.384l-.922-.922a.982.982,0,0,0-1.384,0l-.256.256a.323.323,0,0,1-.364.065c-.1-.046-.2-.089-.308-.131a.321.321,0,0,1-.212-.3v-.359A.979.979,0,0,0,7.181,160H5.876a.979.979,0,0,0-.979.979v.359a.321.321,0,0,1-.211.3c-.1.04-.207.083-.308.129a.323.323,0,0,1-.364-.065l-.256-.256a.982.982,0,0,0-1.384,0l-.922.925a.982.982,0,0,0,0,1.384l.256.256a.322.322,0,0,1,.065.364c-.046.1-.089.2-.129.308a.321.321,0,0,1-.3.211H.979a.979.979,0,0,0-.979.979v1.306a.979.979,0,0,0,.979.979h.359a.321.321,0,0,1,.3.211c.04.1.083.207.129.308a.322.322,0,0,1-.065.364l-.256.256a.982.982,0,0,0,0,1.384l.922.923a.982.982,0,0,0,1.384,0l.256-.256a.323.323,0,0,1,.364-.065c.1.046.2.089.308.131a.321.321,0,0,1,.213.3v.359a.979.979,0,0,0,.979.979H7.181a.979.979,0,0,0,.979-.979v-.359a.321.321,0,0,1,.211-.3c.1-.04.207-.083.308-.129a.323.323,0,0,1,.364.065l.256.256a.982.982,0,0,0,1.384,0l.922-.922a.982.982,0,0,0,0-1.384l-.256-.256a.322.322,0,0,1-.065-.364c.046-.1.089-.2.131-.308a.321.321,0,0,1,.3-.212h.359a.979.979,0,0,0,.979-.979v-1.306A.979.979,0,0,0,12.078,164.9Zm.326,2.285a.326.326,0,0,1-.326.326h-.359a.983.983,0,0,0-.914.631q-.052.137-.112.27a.982.982,0,0,0,.2,1.1l.255.256a.326.326,0,0,1,0,.462h0l-.922.923a.326.326,0,0,1-.462,0l-.256-.256a.981.981,0,0,0-1.1-.2c-.088.04-.179.078-.269.112a.982.982,0,0,0-.631.913v.359a.326.326,0,0,1-.326.326H5.876a.326.326,0,0,1-.326-.326v-.359a.983.983,0,0,0-.631-.914q-.137-.052-.27-.112a.983.983,0,0,0-1.1.2l-.256.255a.326.326,0,0,1-.462,0h0l-.922-.921a.326.326,0,0,1,0-.462l.256-.256a.982.982,0,0,0,.2-1.1c-.04-.088-.078-.179-.112-.269a.982.982,0,0,0-.913-.632H.979a.326.326,0,0,1-.326-.326v-1.306a.326.326,0,0,1,.326-.326h.359a.983.983,0,0,0,.914-.631q.052-.137.112-.27a.982.982,0,0,0-.2-1.1l-.257-.256a.326.326,0,0,1,0-.462h0l.922-.922a.326.326,0,0,1,.462,0l.256.256a.981.981,0,0,0,1.1.2c.088-.04.179-.078.269-.112a.982.982,0,0,0,.632-.913v-.359a.326.326,0,0,1,.326-.326H7.181a.326.326,0,0,1,.326.326v.359a.983.983,0,0,0,.631.914q.137.052.27.112a.981.981,0,0,0,1.1-.2l.256-.255a.328.328,0,0,1,.462,0l.922.922a.326.326,0,0,1,0,.462l-.256.256a.982.982,0,0,0-.2,1.1c.04.088.078.179.112.269a.982.982,0,0,0,.913.631h.359a.326.326,0,0,1,.326.326Z" transform="translate(0 -160)"/>
      </g>
    </g>
    <g id="Group_850" data-name="Group 850" transform="translate(3.589 10.119)">
      <g id="Group_849" data-name="Group 849">
        <path id="Path_19392" data-name="Path 19392" class="cls-1" d="M93.829,250.807c0-.078-.009-.156-.018-.234s-.023-.166-.04-.248c-.011-.053-.026-.106-.041-.159s-.039-.134-.062-.2c-.016-.045-.033-.09-.05-.135a2.907,2.907,0,0,0-.144-.306c0-.008-.007-.016-.011-.023a2.894,2.894,0,0,0-.294-.428l-.03-.034c-.045-.053-.091-.1-.14-.154-.025-.026-.052-.051-.079-.077l-.1-.089q-.059-.052-.121-.1l-.054-.04A2.917,2.917,0,0,0,90.9,248c-.033,0-.065,0-.1.006-.07,0-.139.006-.21.013l-.111.013a2.994,2.994,0,0,0-.316.059,2.939,2.939,0,0,0,0,5.693l.016,0a3.109,3.109,0,0,0,.342.065c.076.009.152.011.228.015.051,0,.1.01.151.01.093,0,.19-.006.288-.016a.318.318,0,0,0,.033,0c.079-.009.16-.021.242-.037.033-.006.063-.014.094-.022.057-.013.115-.027.173-.045s.09-.03.135-.045l.137-.05c.046-.018.085-.038.127-.057s.109-.05.163-.079h0a3.864,3.864,0,0,0,.837-.6,1.027,1.027,0,0,0,.175-.214,3.484,3.484,0,0,0,.492-1.342c.009-.063.017-.126.022-.19s.008-.118.009-.177c0-.019,0-.036,0-.055C93.836,250.894,93.831,250.852,93.829,250.807Zm-.651.214c0,.027,0,.054,0,.081-.006.079-.016.158-.029.237a2.29,2.29,0,0,1-1.147,1.6c-.04.021-.08.041-.12.059l-.027.013a2.358,2.358,0,0,1-.6.18l-.044.007c-.041.006-.081.011-.121.014s-.105.007-.159.008h-.068a2.294,2.294,0,0,1-.231-.014l-.039,0a2.42,2.42,0,0,1-.267-.05,2.285,2.285,0,0,1,0-4.427h0a2.365,2.365,0,0,1,.574-.072,2.261,2.261,0,0,1,.279.019l.074.011c.071.011.14.025.209.043l.067.017a2.3,2.3,0,0,1,.5.21L92.1,249c.052.033.1.065.151.1.026.019.053.038.079.059a2.348,2.348,0,0,1,.184.163c.023.023.044.049.067.074.038.041.074.083.109.127s.047.062.07.093c.033.047.065.1.095.146l.049.081a2.24,2.24,0,0,1,.112.239c.013.033.024.065.036.1.021.06.039.121.055.182.008.033.017.062.024.093a2.3,2.3,0,0,1,.041.267c0,.024,0,.048,0,.072C93.18,250.87,93.182,250.945,93.179,251.021Z" transform="translate(-87.959 -248)"/>
      </g>
    </g>
    <g id="Group_852" data-name="Group 852" transform="translate(3.561)">
      <g id="Group_851" data-name="Group 851">
        <path id="Path_19393" data-name="Path 19393" class="cls-1" d="M102.307,6.855H101.28a.319.319,0,0,1-.3-.214,6.8,6.8,0,0,0-.367-.885.32.32,0,0,1,.063-.369l.728-.729a.979.979,0,0,0,0-1.384l-1.388-1.386a.979.979,0,0,0-1.384,0l-.728.727a.32.32,0,0,1-.368.063,6.781,6.781,0,0,0-.885-.369.319.319,0,0,1-.215-.3V.979A.979.979,0,0,0,95.452,0H93.493a.979.979,0,0,0-.979.979V2.006a.319.319,0,0,1-.214.3,6.8,6.8,0,0,0-.885.368.319.319,0,0,1-.369-.063l-.729-.728a.981.981,0,0,0-1.384,0L87.548,3.273a.979.979,0,0,0,0,1.385l1.07,1.072a.326.326,0,0,0,.462-.461L88.01,4.2a.326.326,0,0,1,0-.462L89.395,2.35a.326.326,0,0,1,.462,0l.729.728a.97.97,0,0,0,1.122.184,6.176,6.176,0,0,1,.8-.333.971.971,0,0,0,.66-.924V.979a.326.326,0,0,1,.326-.326h1.959a.326.326,0,0,1,.326.326V2.006a.971.971,0,0,0,.66.923,6.157,6.157,0,0,1,.8.333.973.973,0,0,0,1.121-.184l.729-.728a.326.326,0,0,1,.462,0l1.385,1.386a.326.326,0,0,1,0,.461l-.728.729a.971.971,0,0,0-.184,1.122,6.178,6.178,0,0,1,.333.8.971.971,0,0,0,.924.66h1.027a.326.326,0,0,1,.326.326V9.793a.326.326,0,0,1-.326.326H101.28a.971.971,0,0,0-.923.66,6.151,6.151,0,0,1-.333.8.972.972,0,0,0,.184,1.121l.728.729a.326.326,0,0,1,0,.462L99.55,15.277a.326.326,0,0,1-.461,0l-1.073-1.07a.326.326,0,0,0-.469.454l.008.008,1.072,1.07a.979.979,0,0,0,1.384,0l1.385-1.385a.979.979,0,0,0,0-1.385l-.727-.728a.32.32,0,0,1-.063-.368,6.783,6.783,0,0,0,.369-.885.319.319,0,0,1,.3-.215h1.027a.979.979,0,0,0,.979-.979V7.834A.979.979,0,0,0,102.307,6.855Z" transform="translate(-87.261)"/>
      </g>
    </g>
    <g id="Group_854" data-name="Group 854" transform="translate(7.68 4.572)">
      <g id="Group_853" data-name="Group 853">
        <path id="Path_19394" data-name="Path 19394" class="cls-1" d="M194.311,113.29a4.248,4.248,0,0,0-6,0,.326.326,0,0,0,.462.462,3.591,3.591,0,1,1,5.112,5.044l-.034.034a.326.326,0,0,0,.454.47l.008-.008A4.248,4.248,0,0,0,194.311,113.29Z" transform="translate(-188.219 -112.049)"/>
      </g>
    </g>
  </g>
</svg>
