<svg xmlns="http://www.w3.org/2000/svg" width="45" height="45" viewBox="0 0 45 45">
  <defs>
    <style>
      .cls-1 {
        fill: #1ba0e1;
      }

      .cls-1, .cls-2 {
        stroke: #fff;
      }

      .cls-2 {
        fill: #fff;
        stroke-width: 0.3px;
      }

      .cls-3 {
        stroke: none;
      }

      .cls-4 {
        fill: none;
      }
    </style>
  </defs>
  <g id="tv_hv4" transform="translate(-1898 -3059)">
    <g id="Component_21_65" data-name="Component 21 – 65" transform="translate(1898 3059)">
      <g id="Rectangle_436" data-name="Rectangle 436" class="cls-1">
        <rect class="cls-3" width="45" height="45" rx="8"/>
        <rect class="cls-4" x="0.5" y="0.5" width="44" height="44" rx="7.5"/>
      </g>
    </g>
    <g id="surface1" transform="translate(1907 3068.001)">
      <path id="Path_19743" data-name="Path 19743" class="cls-2" d="M25.747,76.659H24.409l-.843-12.249A.437.437,0,0,0,23.129,64H20.511a.437.437,0,0,0-.436.407l-.843,12.249h-.9V74.041a.436.436,0,0,0-.709-.341l-3.655,2.924V74.041a.436.436,0,0,0-.709-.341L9.6,76.624V74.041a.436.436,0,0,0-.709-.341L5.237,76.624V74.041a.437.437,0,0,0-.661-.374L.212,76.286A.436.436,0,0,0,0,76.659V87.133a.436.436,0,0,0,.436.436H25.747a.436.436,0,0,0,.436-.436V77.1A.436.436,0,0,0,25.747,76.659ZM20.918,64.877h1.8l.813,11.783H20.105ZM14.837,86.7V81.46h2.618V86.7Zm10.474,0H18.329V81.023a.437.437,0,0,0-.437-.436H14.4a.436.436,0,0,0-.436.436V86.7H.873v-9.79l3.491-2.095v2.72a.436.436,0,0,0,.709.341l3.655-2.924v2.583a.436.436,0,0,0,.709.341l3.655-2.924v2.583a.436.436,0,0,0,.709.341l3.655-2.924V77.1a.436.436,0,0,0,.436.436h7.419V86.7Zm0,0" transform="translate(0 -61.387)"/>
      <path id="Path_19744" data-name="Path 19744" class="cls-2" d="M352.392.872a1.62,1.62,0,0,1,.424.328,1.527,1.527,0,0,0,.975.545,1.593,1.593,0,0,0,1.028-.567,2.043,2.043,0,0,1,.368-.305c.09,0,.325.224.452.342a1.462,1.462,0,0,0,.945.53,1.7,1.7,0,0,0,1.1-.6c.107-.1.269-.253.3-.271.234,0,.288.078.432.285a1.1,1.1,0,0,0,.965.587.436.436,0,0,0,0-.873c-.087,0-.1-.006-.246-.211A1.29,1.29,0,0,0,357.981,0a1.4,1.4,0,0,0-.9.508c-.145.137-.388.365-.48.367a1.777,1.777,0,0,1-.368-.3A1.62,1.62,0,0,0,355.188,0a1.513,1.513,0,0,0-.965.539,1.811,1.811,0,0,1-.419.334,1.7,1.7,0,0,1-.393-.31A1.583,1.583,0,0,0,352.395,0a.436.436,0,0,0,0,.873Zm0,0" transform="translate(-337.558 0)"/>
      <path id="Path_19745" data-name="Path 19745" class="cls-2" d="M66.182,490.668H64.436A.436.436,0,0,0,64,491.1v2.618a.436.436,0,0,0,.436.436h1.746a.436.436,0,0,0,.436-.436V491.1A.436.436,0,0,0,66.182,490.668Zm-.437,2.618h-.873v-1.745h.873Zm0,0" transform="translate(-61.382 -470.595)"/>
      <path id="Path_19746" data-name="Path 19746" class="cls-2" d="M151.514,490.668h-1.746a.436.436,0,0,0-.436.436v2.618a.436.436,0,0,0,.436.436h1.746a.436.436,0,0,0,.436-.436V491.1A.436.436,0,0,0,151.514,490.668Zm-.437,2.618H150.2v-1.745h.873Zm0,0" transform="translate(-143.222 -470.595)"/>
      <path id="Path_19747" data-name="Path 19747" class="cls-2" d="M236.846,490.668H235.1a.436.436,0,0,0-.436.436v2.618a.436.436,0,0,0,.436.436h1.746a.436.436,0,0,0,.436-.436V491.1A.436.436,0,0,0,236.846,490.668Zm-.437,2.618h-.873v-1.745h.873Zm0,0" transform="translate(-225.063 -470.595)"/>
    </g>
  </g>
</svg>
